<svg width="30" height="23" viewBox="0 0 30 23" fill="none" xmlns="http://www.w3.org/2000/svg"><path opacity=".1" d="M6.878 23c-2.293 0-4.024-.756-5.195-2.267C.56 19.178 0 17.023 0 14.267c0-3.156.854-5.934 2.561-8.334 1.707-2.4 4.317-4.377 7.83-5.933l2.34 4.267c-2.194 1.022-3.853 2.2-4.975 3.533-1.073 1.289-1.61 2.933-1.61 4.933.147-.044.39-.066.732-.066 1.561 0 2.878.444 3.951 1.333 1.122.844 1.683 2.022 1.683 3.533 0 1.69-.536 3.023-1.61 4C9.83 22.511 8.488 23 6.878 23zm17.268 0c-2.292 0-4.024-.756-5.195-2.267-1.122-1.555-1.683-3.71-1.683-6.466 0-3.156.854-5.934 2.561-8.334 1.708-2.4 4.317-4.377 7.83-5.933L30 4.267c-2.195 1.022-3.854 2.2-4.976 3.533-1.073 1.289-1.61 2.933-1.61 4.933.147-.044.39-.066.732-.066 1.561 0 2.878.444 3.952 1.333 1.122.844 1.683 2.022 1.683 3.533 0 1.69-.537 3.023-1.61 4-1.073.978-2.415 1.467-4.025 1.467z" fill="#353F54"/></svg>