<svg width="16" height="16" viewBox="0 0 16 16" xmlns="http://www.w3.org/2000/svg"><title>noun_Balloon_51156</title><path d="M14.481 2.286C11.977-.602 7.255-.609 3.933 2.271.85 4.944.365 9.514 2.029 12.14l-.828.717a.69.69 0 0 0-1.032.922l.907 1.046a.692.692 0 0 0 1.059-.89l.827-.718c2.364 2.02 6.957 2.186 10.04-.487 3.322-2.88 3.984-7.556 1.48-10.444zM7.97 1.744c.105.21-.07.445-.388.523 0 0-.487.12-1.248.5a4.755 4.755 0 0 0-1.214.858c-.226.237-.497.26-.602.05-.105-.208-.005-.574.22-.812 0 0 .453-.476 1.215-.857.76-.381 1.248-.5 1.248-.5.318-.078.665.03.77.238z" fill="#000" fill-rule="nonzero"/></svg>