<svg width="40" height="41" viewBox="0 0 40 41" xmlns="http://www.w3.org/2000/svg"><title>Icon</title><path d="M1.512 17.526c-.192-2.682 1.954-4.981 4.675-4.981a4.683 4.683 0 0 1 4.674 5.02L9.597 35.381a3.4 3.4 0 0 1-3.41 3.18c-1.801 0-3.257-1.38-3.41-3.18L1.511 17.526zm4.675-7.357a4.325 4.325 0 0 0 4.33-4.33 4.325 4.325 0 0 0-4.33-4.33c-2.414 0-4.292 1.954-4.292 4.33 0 2.414 1.916 4.33 4.292 4.33zm9.12 7.357l1.264 17.856a3.4 3.4 0 0 0 3.41 3.18c1.8 0 3.257-1.38 3.41-3.18l1.303-17.856a4.683 4.683 0 0 0-4.675-5.02c-2.759.039-4.904 2.338-4.713 5.02zm4.674-7.357a4.325 4.325 0 0 0 4.33-4.33 4.325 4.325 0 0 0-4.33-4.33 4.301 4.301 0 0 0-4.33 4.33 4.325 4.325 0 0 0 4.33 4.33zm9.081 7.357l1.303 17.856a3.4 3.4 0 0 0 3.41 3.18c1.801 0 3.257-1.38 3.41-3.18l1.303-17.856a4.683 4.683 0 0 0-4.675-5.02c-2.758.039-4.904 2.338-4.751 5.02zm4.713-7.357a4.325 4.325 0 0 0 4.33-4.33 4.325 4.325 0 0 0-4.33-4.33 4.301 4.301 0 0 0-4.33 4.33 4.325 4.325 0 0 0 4.33 4.33z" fill-rule="nonzero" stroke="#00BCDC" stroke-width="3" fill="none"/></svg>