<svg width="20" height="12" viewBox="0 0 20 12" xmlns="http://www.w3.org/2000/svg"><title>noun_Couch_802766</title><g fill="#000" fill-rule="evenodd"><path d="M19.06 2.8c-.52 0-.94.42-.94.94v2.18c0 .34-.28.62-.62.62h-15c-.34 0-.62-.28-.62-.62V3.74a.939.939 0 1 0-1.88 0v7.8c0 .26.22.46.46.46.24 0 .46-.22.46-.46v-.6c0-.34.28-.62.62-.62h16.88c.34 0 .62.28.62.62v.6c0 .26.22.46.46.46.24 0 .46-.22.46-.46V3.74c.04-.52-.38-.94-.9-.94z"/><path d="M3.44 5.62h13.12c.34 0 .62-.26.62-.56V2.24C17.18 1 16.06 0 14.68 0H5.32c-1.38 0-2.5 1.02-2.5 2.24v2.82c0 .3.28.56.62.56z"/></g></svg>