<svg width="20" height="15" viewBox="0 0 20 15" xmlns="http://www.w3.org/2000/svg"><title>noun_entertainment_1958350</title><g fill="#000" fill-rule="nonzero"><path d="M18.398.382H1.402C.793.382.3.875.3 1.484v12.032c0 .609.493 1.102 1.102 1.102h16.996c.609 0 1.102-.493 1.102-1.102V1.484c0-.609-.493-1.102-1.102-1.102zM3.33 12.847H1.586v-1.515h1.743v1.515zm0-3.06H1.586V8.273h1.743v1.514zm0-3.06H1.586V5.213h1.743v1.514zm0-3.06H1.586V2.154h1.743v1.515zm11.924 9.18H4.547V2.153h10.706v10.694zm2.961 0h-1.743v-1.515h1.743v1.515zm0-3.06h-1.743V8.273h1.743v1.514zm0-3.06h-1.743V5.213h1.743v1.514zm0-3.06h-1.743V2.154h1.743v1.515z"/><path d="M13.051 7.5l-2.6-1.838-2.6-1.837v7.35l2.6-1.838z"/></g></svg>