<svg width="22" height="17" viewBox="0 0 22 17" xmlns="http://www.w3.org/2000/svg"><title>noun_fashion_2078258</title><path d="M20.949 7.742l-3.664 1.785a.458.458 0 0 1-.606-.196l-.938-1.707.273 7.862a.488.488 0 0 1-.46.498l-9.132.32a.475.475 0 0 1-.476-.464l-.3-7.742-.716 1.64a.466.466 0 0 1-.61.245L.614 8.458a.48.48 0 0 1-.26-.577l.021-.104c.008-.042.053-.14.1-.244.077-.18.187-.43.335-.751.265-.584.59-1.28.826-1.783.14-.301.253-.543.277-.599a5.74 5.74 0 0 1 1.496-2.166A5.89 5.89 0 0 1 5.9 1.128 7.805 7.805 0 0 1 7.47.92l.02.004.075.014.05.01a.466.466 0 0 1 .43.256 2.794 2.794 0 0 0 2.55 1.614 2.794 2.794 0 0 0 2.426-1.791.47.47 0 0 1 .413-.283l.05.01.07.014.026.005a7.725 7.725 0 0 1 1.578.1 5.88 5.88 0 0 1 2.55.927 5.63 5.63 0 0 1 1.645 2.047l.26.483c.252.48.637 1.169.954 1.761a18.573 18.573 0 0 1 .523 1.018.47.47 0 0 1-.14.634z" fill="#000" fill-rule="nonzero"/></svg>