<svg width="16" height="16" viewBox="0 0 16 16" xmlns="http://www.w3.org/2000/svg"><title>noun_Food_162924</title><path d="M15.795 3.792L12.617 7.24l-.012.011a2.728 2.728 0 0 1-3.117.505l-2.724 2.724.2.2-4.915 4.916a1.16 1.16 0 0 1-1.262.256 1.164 1.164 0 0 1-.385-1.902l4.915-4.916.2.2 2.724-2.723a2.729 2.729 0 0 1 .52-3.132v.001L12.21.205a.46.46 0 0 1 .328-.143.34.34 0 0 1 .23.078L9.146 3.763 12.769.142c.085.085.146.348-.065.559L9.528 4.146l.78.78 3.446-3.175a.46.46 0 0 1 .329-.144.34.34 0 0 1 .23.079L10.69 5.309l3.624-3.623c.084.085.146.348-.065.56L11.073 5.69l.781.782 3.447-3.176a.46.46 0 0 1 .328-.143.34.34 0 0 1 .23.079l-3.622 3.622 3.623-3.622c.085.085.146.348-.065.559zm-5.577 5.244l-.2.2-.554-.554L8.22 9.928l.553.554-.2.2 4.915 4.915a1.164 1.164 0 0 0 1.647-1.646l-4.916-4.915zM5.51 8.343l1.807-1.808-.554-.554L3.222 2.44c-.363-.363-1.4-1.154-1.843-.754-.775.777.276 3.085 2.347 5.156a13.028 13.028 0 0 0 1.784 1.5z" fill="#000" fill-rule="nonzero"/></svg>