<svg width="17" height="12" viewBox="0 0 17 12" xmlns="http://www.w3.org/2000/svg"><title>noun_gaming_1352662</title><path d="M16.888 8.943L16.3 4.372c-.04-.26-.07-.529-.098-.788-.012-.095-.022-.19-.032-.285-.212-1.849-1.76-3.243-3.603-3.243-.83 0-1.643.293-2.285.822-.486.4-1.08.62-1.669.62h-.23c-.589 0-1.18-.22-1.667-.62A3.612 3.612 0 0 0 4.43.056C2.588.056 1.04 1.45.829 3.299l-.03.277c-.029.262-.058.533-.101.804L.112 8.945c-.094.733.13 1.471.618 2.025a2.514 2.514 0 0 0 1.885.856c.883 0 1.714-.478 2.166-1.247l1.423-2.413c.182-.308.512-.498.865-.498H9.93c.352 0 .683.192.865.498l1.42 2.412a2.532 2.532 0 0 0 2.169 1.248c.72 0 1.408-.313 1.885-.856a2.569 2.569 0 0 0 .618-2.027zm-12.66-4.35c-.728 0-1.32-.596-1.32-1.331S3.5 1.93 4.228 1.93c.727 0 1.319.597 1.319 1.332 0 .735-.592 1.332-1.319 1.332zm8.546 0c-.729 0-1.32-.596-1.32-1.331s.591-1.332 1.32-1.332c.726 0 1.318.597 1.318 1.332 0 .735-.592 1.332-1.318 1.332z" fill="#000" fill-rule="nonzero"/></svg>