<svg width="15" height="15" viewBox="0 0 15 15" xmlns="http://www.w3.org/2000/svg"><title>noun_insurance_1249013</title><g fill="#000" fill-rule="evenodd"><path d="M14.838 6.405l-.243.73c-.487 1.216-1.622 2.19-2.595 3.081-1.297 1.135-2.595 2.27-3.73 3.568l-.81.892-.73-.892C5.514 12.486 4.297 11.35 3 10.216 1.946 9.324.892 8.351.324 7.136c-.08-.244-.162-.487-.162-.73h3.73l.081-.244.73-1.297 1.621 3.81.325.893.486-.892.81-1.784H9.082l.162-.162.811-1.054.973 3 .324.973.487-.892 1.297-2.352h1.703z"/><path d="M7.46.973c.972-.73 2.189-1.135 3.486-.892C13.459.486 15 2.838 15 5.271c0 .08-.081.161-.081.243h-2.351l-.082.243-.972 1.702-.892-2.918-.325-.73-.486.648L8.676 6H7.459l-.162.243-.567 1.135-1.54-3.73-.325-.891-.487.81-1.054 1.947H0V5.27C0 2.838 1.46.486 4.054.081 5.351-.162 6.486.243 7.46.973z"/></g></svg>