<svg width="82" height="82" viewBox="0 0 82 82" xmlns="http://www.w3.org/2000/svg"><title>icon</title><g fill="#DDDFE2" fill-rule="evenodd"><path d="M47.48 44.756v-5.21h5.21a14.39 14.39 0 0 1-5.21 5.21m-10.712 1.462v-6.672h7.142v6.672a14.21 14.21 0 0 1-3.571.47 14.2 14.2 0 0 1-3.571-.47m-8.781-6.672h5.21v5.21a14.376 14.376 0 0 1-5.21-5.21m-1.463-10.713h6.673v7.142h-6.673a14.188 14.188 0 0 1-.47-3.571c0-1.234.174-2.427.47-3.571m6.673-8.78v5.209h-5.21a14.37 14.37 0 0 1 5.21-5.209M54.15 35.975h-6.67v-3.571H43.91v3.57h-7.142v-7.141h3.57v-3.571h-3.57v-6.673a14.281 14.281 0 0 1 3.57-.47v-3.57c-9.846 0-17.854 8.01-17.854 17.855 0 9.847 8.008 17.854 17.855 17.854 9.845 0 17.855-8.007 17.855-17.854h-3.571c0 1.235-.175 2.428-.472 3.57"/><path d="M52.69 25.262h-5.21v-5.21a14.39 14.39 0 0 1 5.21 5.21m1.463 10.713h-6.672v-7.142h6.672a14.21 14.21 0 0 1 .47 3.57 14.2 14.2 0 0 1-.47 3.572m-6.672 8.78v-5.21h5.21a14.376 14.376 0 0 1-5.21 5.21m-10.713 1.463v-6.672h7.142v6.672c-1.143.296-2.336.47-3.571.47a14.21 14.21 0 0 1-3.571-.47m-8.78-6.672h5.209v5.21a14.37 14.37 0 0 1-5.208-5.21m15.92-20.955v6.67h-3.57v3.572h3.57v7.142h-7.141v-3.571h-3.571v3.57h-6.673a14.281 14.281 0 0 1-.47-3.57h-3.57c0 9.847 8.01 17.854 17.855 17.854 9.847 0 17.855-8.007 17.855-17.854 0-9.846-8.008-17.855-17.855-17.855v3.57c1.235 0 2.428.176 3.57.472"/><path d="M6.877 6.877v51.846H24.6V65.6l10.935-6.877h39.588V6.877H6.877zM16.4 82V65.6H8.2c-4.522 0-8.2-3.678-8.2-8.2V8.2C0 3.678 3.678 0 8.2 0h65.6C78.322 0 82 3.678 82 8.2v49.2c0 4.522-3.678 8.2-8.2 8.2H38.265L16.4 82z"/></g></svg>