<svg id="Calque_1" data-name="Calque 1" xmlns="http://www.w3.org/2000/svg" viewBox="0 0 371 133"><defs><style>.cls-1{fill:#9a9fa9}</style></defs><title>Plan de travail 1 copie 5</title><g id="layer1"><path id="path137718" class="cls-1" d="M54.07 95.74L42.63 68.86h-5.41L25.78 95.74h6l2.44-6h11.27l2.44 6zM43.4 84.57h-7.1l3.55-8.66zm37.66 6.86l-3.73-3.77c-2.1 1.91-4 3.12-7 3.12-4.58 0-7.74-3.81-7.74-8.38v-.08c0-4.58 3.24-8.31 7.74-8.31a9.85 9.85 0 0 1 6.83 3l3.73-4.31a13.77 13.77 0 0 0-10.52-4.12A13.57 13.57 0 0 0 56.43 82.4v.07A13.47 13.47 0 0 0 70.12 96.2a13.62 13.62 0 0 0 10.94-4.77m28.53 0l-3.74-3.77c-2.1 1.91-4 3.12-7 3.12-4.57 0-7.74-3.81-7.74-8.38v-.08c0-4.58 3.24-8.31 7.74-8.31a9.85 9.85 0 0 1 6.83 3l3.73-4.31a13.76 13.76 0 0 0-10.52-4.12A13.57 13.57 0 0 0 85 82.4v.07A13.48 13.48 0 0 0 98.64 96.2a13.65 13.65 0 0 0 11-4.77m32.25-9v-.08c0-7.59-5.91-13.73-14.14-13.73a13.81 13.81 0 0 0-14.28 13.78v.07c0 7.59 5.91 13.73 14.15 13.73s14.22-6.2 14.22-13.8m-6.14.07a8 8 0 0 1-8 8.31 8.11 8.11 0 0 1-8.09-8.38v-.08a8 8 0 0 1 8-8.31 8.1 8.1 0 0 1 8.08 8.39v.07zm35.58 13.27l-6.52-9.53a8.3 8.3 0 0 0 5.72-8.28v-.07c0-5.49-3.77-8.81-10.07-8.81h-12.2v26.69h5.87V87.2h4.62l5.72 8.54zm-6.75-17.5c0 2.25-1.64 3.77-4.5 3.77h-5.95v-7.66h5.84c2.86 0 4.61 1.3 4.61 3.81v.08"/><path id="path137722" class="cls-1" d="M163.9 56c0 .35 1.49.32 3 .32a71.76 71.76 0 0 0 16.53-1.76c7.06-1.67 9-4.16 12.92-6.38 8.06-4.54 18.25-3.75 18.25-4.52 0-.2-.15-.26-3-1-.26-1.09-1.67-1.79-3.07-1.79-3.31 0-8.74 3.84-13.6 3.84a9 9 0 0 1-1.55-.15c-2-3.66-6.45-6.91-12-7.62-3.2-.41-5.48-.79-7.3-1.11-6.41-1.16-8.08-2.83-8.81-2.83-.14 0-.2.15-.2.26 0 1.23 2.2 4.69 5.68 8.59 2.29 2.55 6.07 6.24 6.07 8 0 1-2.14 2.13-6.22 3.86-4.74 2-6.7 2-6.7 2.29"/><path id="path137724" class="cls-1" d="M207.94 95.74V69.05h-5.87v10.56h-13.36V69.05h-5.87v26.69h5.87V85h13.36v10.74zm34.74-13.34v-.08c0-7.59-5.91-13.73-14.15-13.73a13.8 13.8 0 0 0-14.22 13.81v.07c0 7.59 5.91 13.73 14.14 13.73s14.23-6.2 14.23-13.8m-6.14.07a8 8 0 0 1-8 8.31 8.11 8.11 0 0 1-8.09-8.38v-.08a8 8 0 0 1 8-8.31 8.11 8.11 0 0 1 8.09 8.39v.07zm31.57-8v-5.42H246v5.41h8.13v21.28H260V74.46zm26 21.28v-5.23h-14.52v-5.61h12.58v-5.22h-12.58v-5.42h14.3v-5.22h-20.14v26.69zm24.28 0V90.4h-12V69.05h-5.87v26.69zm24.86-7.89v-.08c0-4.65-3.05-6.59-8.46-8-4.65-1.2-5.79-1.78-5.79-3.52v-.08c0-1.29 1.18-2.32 3.43-2.32a12.51 12.51 0 0 1 6.94 2.63l3.05-4.43a15.46 15.46 0 0 0-9.91-3.39c-5.46 0-9.35 3.2-9.35 8v.08c0 5.3 3.47 6.79 8.85 8.16 4.46 1.14 5.38 1.91 5.38 3.4v.07c0 1.57-1.45 2.52-3.85 2.52a12.26 12.26 0 0 1-8-3.24l-3.47 4.15a17 17 0 0 0 11.32 4.27c5.76 0 9.8-3 9.8-8.27"/></g></svg>