<svg id="Calque_1" data-name="Calque 1" xmlns="http://www.w3.org/2000/svg" viewBox="0 0 371 133"><defs><style>.cls-1{fill:#9a9fa9;fill-rule:evenodd}</style></defs><title>Plan de travail 1 copie 6</title><path class="cls-1" d="M127.21 65.9s.56-6.94.69-8.61c.11-1.28-.05-4.66-3.13-4.66H111l-9.06 24.72h10.8l6.57-17.88-1.39 17.88h9.6l11.77-17.57-6.42 17.57h10.87l9.06-24.72h-16.88l-8.71 13.27zm60.91-13c-7.22 1.48-17 6.81-16.89 16.53.06 5.61 6.8 8.72 14.53 8.51a62 62 0 0 0 9-1l2.87-7.49c-3.8.6-7.44 1.52-10.31.37-5.15-2.07-2-7.46 1.67-9.13a14.58 14.58 0 0 1 6.42-1.39c1.09 0 3.75.07 4.78 2.44l3.6-8.74a37.31 37.31 0 0 0-15.67-.14zm105.55 24.45h11.92l9.06-24.72h-11.93l-9.05 24.72zm-143.12 0h11.93l9.05-24.72h-11.91l-9.07 24.72zm72.95-15.82h-6l3.26-8.9H209.4l-9 24.72h11.32l3.06-8.35h6l-3.09 8.38h11.35l9.07-24.72h-11.33l-3.28 8.9zm63.92-8.9h-11.59l-9.06 24.72h23.28l3-8.21h-11.67l6-16.51zm50.4 17c.08-1.7.42-8.45.63-12.34a4.74 4.74 0 0 0-1-3.63 3.26 3.26 0 0 0-2.16-1h-13.87l-9.05 24.72h10.05l6.42-17.5-.76 17.5H345l9-24.75h-10l-6.21 17zm-102 7.76h25.13l2.43-6.67h-13.9l1-2.75h12.94l2.23-6.08h-13l1-2.75h13.65l2.4-6.47h-24.86l-9.05 24.72zM63.61 50.61a4.14 4.14 0 0 0-1.15-2.88 1.77 1.77 0 0 0-1.35-.47C59.8 47.37 58.83 49 58.9 51a4.1 4.1 0 0 0 1.1 2.82 1.85 1.85 0 0 0 1.35.51c1.35-.09 2.32-1.72 2.26-3.72zm-.93 1.71a4.1 4.1 0 0 0 0-.61c-.05-1.23-.71-2.19-1.47-2.17s-1.33 1-1.27 2.25a3.52 3.52 0 0 0 .13.82 3.86 3.86 0 0 1-.44-1.68c-.06-1.53.68-2.89 1.61-3a1.17 1.17 0 0 1 .87.31 3.38 3.38 0 0 1 .89 2.39 4.32 4.32 0 0 1-.32 1.69zM67.83 56a1.15 1.15 0 0 0-.44.26c-3.5-.63-4.59.32-6.47.27 0-.23-.06-.56-.36-.53-.11 0-.26.27-.32.35-.49.73-.68 1.14-.49 1.31s.46-.11.71-.41a2.71 2.71 0 0 1 1.7.44c.59.4 1.79 1.92 3 1.38.88-.4 1.71-1.91 2.35-1.91a4.94 4.94 0 0 0 .76 0c.18-.1-.11-1.27-.44-1.16zm-2.7 2.37c-1.07.55-1.71-.84-2.75-1.3a11.76 11.76 0 0 1 4.36-.17c-.35.25-1.32 1.29-1.61 1.44zM69.11 50.38a4.09 4.09 0 0 0-1.22-2.84 1.65 1.65 0 0 0-1.25-.41c-1.24.14-2.1 1.75-2 3.67a4.18 4.18 0 0 0 1.22 2.82 1.73 1.73 0 0 0 1.25.45c1.28-.07 2.14-1.73 2-3.69zm-1 2.22a3.37 3.37 0 0 0 .14-1.13c0-1.24-.69-2.2-1.46-2.15s-1.19.83-1.28 1.84a.09.09 0 0 1 0 .06v-.4c-.11-1.49.52-2.83 1.38-2.93a1 1 0 0 1 .78.27 3.45 3.45 0 0 1 1 2.33 4.08 4.08 0 0 1-.61 2.11z"/><path class="cls-1" d="M26.18 52.19c-.43 0-.85-.29-1.27-.31-.6 0-1.24.17-1.22.31s.78.09 1.49.42c.44.32 1.19.82 1.3.71s-.16-.83-.3-1.13zm0 0c-.43 0-.85-.29-1.27-.31-.6 0-1.24.17-1.22.31s.78.09 1.49.42c.44.32 1.19.82 1.3.71s-.16-.83-.3-1.13zm0 0c-.43 0-.85-.29-1.27-.31-.6 0-1.24.17-1.22.31s.78.09 1.49.42c.44.32 1.19.82 1.3.71s-.16-.83-.3-1.13zm0 0c-.43 0-.85-.29-1.27-.31-.6 0-1.24.17-1.22.31s.78.09 1.49.42c.44.32 1.19.82 1.3.71s-.16-.83-.3-1.13zm0 0c-.43 0-.85-.29-1.27-.31-.6 0-1.24.17-1.22.31s.78.09 1.49.42c.44.32 1.19.82 1.3.71s-.16-.83-.3-1.13zm0 0c-.43 0-.85-.29-1.27-.31-.6 0-1.24.17-1.22.31s.78.09 1.49.42c.44.32 1.19.82 1.3.71s-.16-.83-.3-1.13zm0 0c-.43 0-.85-.29-1.27-.31-.6 0-1.24.17-1.22.31s.78.09 1.49.42c.44.32 1.19.82 1.3.71s-.16-.83-.3-1.13zm0 0c-.43 0-.85-.29-1.27-.31-.6 0-1.24.17-1.22.31s.78.09 1.49.42c.44.32 1.19.82 1.3.71s-.16-.83-.3-1.13zm0 0c-.43 0-.85-.29-1.27-.31-.6 0-1.24.17-1.22.31s.78.09 1.49.42c.44.32 1.19.82 1.3.71s-.16-.83-.3-1.13zm0 0c-.43 0-.85-.29-1.27-.31-.6 0-1.24.17-1.22.31s.78.09 1.49.42c.44.32 1.19.82 1.3.71s-.16-.83-.3-1.13zM92.26 87a7 7 0 0 0-2.39-5.66c.78-1.66 1.64-6.56-2-9.63 1.42-6.08-4.68-9.49-8-9.8a14.35 14.35 0 0 0-6.7-2.19 7.51 7.51 0 0 0-1-9.51 8 8 0 0 0-5.54-7.68c-1.13-2.81-7.34-2.35-8.06.24a8.76 8.76 0 0 0-5.38 8.9c-2.2 2.36-2.1 6.44-.07 9a18.23 18.23 0 0 0-6.46 1.24h-.08a8.77 8.77 0 0 0-5-.83 10.76 10.76 0 0 0-2.27-1 7.68 7.68 0 0 0-2.54-2.37 6.11 6.11 0 0 0-3.16-3.7 7 7 0 0 0-.61-3.54 4.89 4.89 0 0 1-.35-3.58 1.75 1.75 0 0 0-.27-2.46c-2-2-3.92-.92-4.49 0-1.89-3.36-4-4.26-5.32-3.82-1.68-1.32-4.35-.5-4.31 1.11-1.1.77-1.85 1.14-.14 4.28-.34 6.57.39 8.52 4.69 12.05a5.45 5.45 0 0 0-.81 6.29 8.93 8.93 0 0 0 3.42 7.77c.6 4.53 5 7.21 7.83 7.81a10.21 10.21 0 0 0 7.46 4.48 8.38 8.38 0 0 0 1.43 3.65 11.29 11.29 0 0 0 .18 7.11h2.51a9.25 9.25 0 0 1-.69-5.57 25.65 25.65 0 0 0 10.36 5.57H75a20.73 20.73 0 0 0 6.54-3.3 7.13 7.13 0 0 1-.3 3.3h2.07a3 3 0 0 1 0-.85c3.67-.45 6.91-2.22 8.12-5.42a4.87 4.87 0 0 1 2.78 6.27h2A6.74 6.74 0 0 0 92.26 87zm-5.41-13.52c.77.49 3.86 6.34-.88 9.18a8.15 8.15 0 0 0-1.65-5 12.7 12.7 0 0 0 2.53-4.18zm-1.65-.3c-.08-1.44-.54-4.92-3.07-6.63a2.31 2.31 0 0 0-.15-1.8 5.72 5.72 0 0 1 3.22 8.43zm-3.77-4.87c7.22 9.88-5.65 15.81-17.75 15.61-8.06-.12-11.65-2.66-13.32-4a15.08 15.08 0 0 0 2-8.25c10.54 4.18 25.83.61 29.07-3.36zm-25.33-4.9c.5.25 1 .27 1.15 0s-.1-.54-.43-.73c-.9-.52-.44-1.28.16-1.66.32-.21.06-.35.06-.35-5-2.27-3.51-8.65.12-8.93a.24.24 0 0 0 .05-.48 5.6 5.6 0 0 0-1.73.21c-.16-5.33 3.92-7.28 6.12-7.24.39 0 .2-.37-.09-.37s-1-.24-.75-.46c1.1-1 3.87-.71 4 .05a.25.25 0 0 1-.21.27v.32c3.84.79 5.9 3.39 5.62 6.44-.55.08-.11.55-.11.55a5.3 5.3 0 0 1 2.34 4.82c-.15 3.19-2 3.86-2.52 3.94a1.54 1.54 0 0 1-.69 2.46c-.4.21-.17.49.2.46a3.63 3.63 0 0 0 2-1.07c5 .28 9.63 1.83 9.18 4.35C80 69 73 72 62.92 71.93a26.91 26.91 0 0 1-11-2.16 12.19 12.19 0 0 0-3.5-6.21c2.27-.73 5.19-1.4 7.68-.15zm-27.85-3a2.1 2.1 0 0 1-2.13-1.46 5.86 5.86 0 0 0-1.22-1.68c-4.85-3.8-5.18-5.19-4.93-10.67 0-.21.06-.4.35-.32a1.25 1.25 0 0 1 .91.9c.09 1 .52 3.72 1.13 4.47 0 0 .52-.39.73-.5-.56-.83-.87-3.23-1-4.12a2.06 2.06 0 0 0-2.17-1.62 11.75 11.75 0 0 0-.9-1.93.86.86 0 0 1 1.35.14 24 24 0 0 1 2.51 3.81c.6 1.39 1.11 2.12 1.5 2.18a.52.52 0 0 0 .43-.21 55.29 55.29 0 0 0-3.67-6.57 3 3 0 0 0-1.08-.93c.28-.49 1.12-.24 1.89.53a25.65 25.65 0 0 1 3.93 6.41s.85-.16.45-1.12a53.17 53.17 0 0 0-3-5.31c1.15.13 2.83 2.36 3.71 4.61a11.76 11.76 0 0 0 .49 3.07 4.1 4.1 0 0 0-.51 1.79 3.07 3.07 0 0 0 .07.65h.32l.38-.51c.48-1.54 1.33-1.51 1.43-1.55a4.8 4.8 0 0 1-.07-4.65c.7-1.07 1.44-.44 1.9 0a6.49 6.49 0 0 0-.22 4.43 11.21 11.21 0 0 1 1.07 3.31c0 1.9-1.37 2.54-.93 3.81s-.65 1.93-.18 2.52c.2.25 1.53-.24 1.45-1.12 0-.38-.12-2.15.57-2.8 3.14 1.29 3.51 6.88-1.71 9.25s-9.87-2.44-6.49-6c0 0 .8 1.18 1.09 1.56a2.25 2.25 0 0 0 1.63.61 2.07 2.07 0 0 0 1.34-.45zm-4 5.51c4.62 3.39 11.79-.54 12.51-5.75A5.14 5.14 0 0 1 38 61.65c1.39 2.43 1.15 5.92-1.69 8.66-3.12 2.97-10.49 2.83-12.09-4.4zm3.64 6.88a9 9 0 0 0 12.23-10.2c2 .4 6.32 7.86 2.07 12.64C37 81 29.4 77.21 27.86 72.79zm8.35 7c6.69-.1 12.76-6.8 7.54-16.44C48.25 64.54 51 68 50.55 74.24c-.63 9.26-10.55 9.54-14.34 5.55zM64.87 95c-11.31.1-21.17-5.31-21.8-10.91a9.75 9.75 0 0 0 6.1-2.79c9.36 7.42 28.39 4.09 34.09-1.88 2.38 4.25.2 15.36-18.39 15.58zm18.51-2a26.15 26.15 0 0 0-.31-2.87 10.2 10.2 0 0 0 2.5-5 8.08 8.08 0 0 0 2.9-2.32c4.38 4.26-.13 9.76-5.09 10.19zM24.91 51.88c-.6 0-1.24.17-1.22.31s.78.09 1.49.42c.44.32 1.19.82 1.3.71s-.16-.83-.3-1.13c-.43.04-.85-.29-1.27-.31zm1.27.31c-.43 0-.85-.29-1.27-.31-.6 0-1.24.17-1.22.31s.78.09 1.49.42c.44.32 1.19.82 1.3.71s-.16-.83-.3-1.13zm0 0c-.43 0-.85-.29-1.27-.31-.6 0-1.24.17-1.22.31s.78.09 1.49.42c.44.32 1.19.82 1.3.71s-.16-.83-.3-1.13zm0 0c-.43 0-.85-.29-1.27-.31-.6 0-1.24.17-1.22.31s.78.09 1.49.42c.44.32 1.19.82 1.3.71s-.16-.83-.3-1.13zm0 0c-.43 0-.85-.29-1.27-.31-.6 0-1.24.17-1.22.31s.78.09 1.49.42c.44.32 1.19.82 1.3.71s-.16-.83-.3-1.13zm0 0c-.43 0-.85-.29-1.27-.31-.6 0-1.24.17-1.22.31s.78.09 1.49.42c.44.32 1.19.82 1.3.71s-.16-.83-.3-1.13zm0 0c-.43 0-.85-.29-1.27-.31-.6 0-1.24.17-1.22.31s.78.09 1.49.42c.44.32 1.19.82 1.3.71s-.16-.83-.3-1.13zm0 0c-.43 0-.85-.29-1.27-.31-.6 0-1.24.17-1.22.31s.78.09 1.49.42c.44.32 1.19.82 1.3.71s-.16-.83-.3-1.13zm0 0c-.43 0-.85-.29-1.27-.31-.6 0-1.24.17-1.22.31s.78.09 1.49.42c.44.32 1.19.82 1.3.71s-.16-.83-.3-1.13z"/><path class="cls-1" d="M26.48 53.32c-.11.11-.86-.39-1.3-.71-.71-.33-1.46-.2-1.49-.42s.62-.31 1.22-.31c.42 0 .84.35 1.27.31.14.3.45.98.3 1.13zM63.61 50.61a4.14 4.14 0 0 0-1.15-2.88 1.77 1.77 0 0 0-1.35-.47C59.8 47.37 58.83 49 58.9 51a4.1 4.1 0 0 0 1.1 2.82 1.85 1.85 0 0 0 1.35.51c1.35-.09 2.32-1.72 2.26-3.72zm-.93 1.71a4.1 4.1 0 0 0 0-.61c-.05-1.23-.71-2.19-1.47-2.17s-1.33 1-1.27 2.25a3.52 3.52 0 0 0 .13.82 3.86 3.86 0 0 1-.44-1.68c-.06-1.53.68-2.89 1.61-3a1.17 1.17 0 0 1 .87.31 3.38 3.38 0 0 1 .89 2.39 4.32 4.32 0 0 1-.32 1.69zM67.83 56a1.15 1.15 0 0 0-.44.26c-3.5-.63-4.59.32-6.47.27 0-.23-.06-.56-.36-.53-.11 0-.26.27-.32.35-.49.73-.68 1.14-.49 1.31s.46-.11.71-.41a2.71 2.71 0 0 1 1.7.44c.59.4 1.79 1.92 3 1.38.88-.4 1.71-1.91 2.35-1.91a4.94 4.94 0 0 0 .76 0c.18-.1-.11-1.27-.44-1.16zm-2.7 2.37c-1.07.55-1.71-.84-2.75-1.3a11.76 11.76 0 0 1 4.36-.17c-.35.25-1.32 1.29-1.61 1.44zM69.11 50.38a4.09 4.09 0 0 0-1.22-2.84 1.65 1.65 0 0 0-1.25-.41c-1.24.14-2.1 1.75-2 3.67a4.18 4.18 0 0 0 1.22 2.82 1.73 1.73 0 0 0 1.25.45c1.28-.07 2.14-1.73 2-3.69zm-1 2.22a3.37 3.37 0 0 0 .14-1.13c0-1.24-.69-2.2-1.46-2.15s-1.19.83-1.28 1.84a.09.09 0 0 1 0 .06v-.4c-.11-1.49.52-2.83 1.38-2.93a1 1 0 0 1 .78.27 3.45 3.45 0 0 1 1 2.33 4.08 4.08 0 0 1-.61 2.11z"/><path class="cls-1" d="M26.48 53.32c-.11.11-.86-.39-1.3-.71-.71-.33-1.46-.2-1.49-.42s.62-.31 1.22-.31c.42 0 .84.35 1.27.31.14.3.45.98.3 1.13zM67.83 56a1.15 1.15 0 0 0-.44.26c-3.5-.63-4.59.32-6.47.27 0-.23-.06-.56-.36-.53-.11 0-.26.27-.32.35-.49.73-.68 1.14-.49 1.31s.46-.11.71-.41a2.71 2.71 0 0 1 1.7.44c.59.4 1.79 1.92 3 1.38.88-.4 1.71-1.91 2.35-1.91a4.94 4.94 0 0 0 .76 0c.18-.1-.11-1.27-.44-1.16zm-2.7 2.37c-1.07.55-1.71-.84-2.75-1.3a11.76 11.76 0 0 1 4.36-.17c-.35.25-1.32 1.29-1.61 1.44zM69.11 50.38a4.09 4.09 0 0 0-1.22-2.84 1.65 1.65 0 0 0-1.25-.41c-1.24.14-2.1 1.75-2 3.67a4.18 4.18 0 0 0 1.22 2.82 1.73 1.73 0 0 0 1.25.45c1.28-.07 2.14-1.73 2-3.69zm-1 2.22a3.37 3.37 0 0 0 .14-1.13c0-1.24-.69-2.2-1.46-2.15s-1.19.83-1.28 1.84a.09.09 0 0 1 0 .06v-.4c-.11-1.49.52-2.83 1.38-2.93a1 1 0 0 1 .78.27 3.45 3.45 0 0 1 1 2.33 4.08 4.08 0 0 1-.61 2.11zM63.61 50.61a4.14 4.14 0 0 0-1.15-2.88 1.77 1.77 0 0 0-1.35-.47C59.8 47.37 58.83 49 58.9 51a4.1 4.1 0 0 0 1.1 2.82 1.85 1.85 0 0 0 1.35.51c1.35-.09 2.32-1.72 2.26-3.72zm-.93 1.71a4.1 4.1 0 0 0 0-.61c-.05-1.23-.71-2.19-1.47-2.17s-1.33 1-1.27 2.25a3.52 3.52 0 0 0 .13.82 3.86 3.86 0 0 1-.44-1.68c-.06-1.53.68-2.89 1.61-3a1.17 1.17 0 0 1 .87.31 3.38 3.38 0 0 1 .89 2.39 4.32 4.32 0 0 1-.32 1.69zM93.56 87.72H301.8l1.28-3.53H91.84a7 7 0 0 1 .42 2.8 7.57 7.57 0 0 1 1.3.73z"/></svg>