<svg id="Calque_1" data-name="Calque 1" xmlns="http://www.w3.org/2000/svg" viewBox="0 0 371 133"><defs><style>.cls-1{fill:#9a9fa9}</style></defs><title>Plan de travail 1</title><path class="cls-1" d="M49.09 95.64q5.28-.56 6.84-1.87c1-.87 1.57-3.1 1.57-6.67V44.44c0-3.38-.51-5.58-1.54-6.62s-3.32-1.68-6.87-1.93v-1.8h27v1.8q-5.28.28-7.08 1.73t-1.8 6.22v46a4.91 4.91 0 0 0 .54 2.5 3 3 0 0 0 2.36 1.14 22.63 22.63 0 0 0 2.27.19h4.47q12.78 0 17.27-2.11t8.71-10.78h2.43l-4.68 16.63H49.09zM120.4 34.09v1.67a19.27 19.27 0 0 0-4.88.47 3 3 0 0 0-2.29 3.08 9.94 9.94 0 0 0 .82 3.31q.81 2.13 3 7.11l15 33.33L145.65 47c.6-1.59 1-2.94 1.37-4a10.44 10.44 0 0 0 .46-2.7 3.75 3.75 0 0 0-2.39-3.79 14.66 14.66 0 0 0-4.66-.66v-1.76H160v1.67a8.79 8.79 0 0 0-4.47 1.63q-2.19 1.81-4.34 7.3L130 98.58h-1.45L105 45.94q-3-6.67-4.81-8.31a8.51 8.51 0 0 0-5.27-1.87v-1.67zM163.64 95.64c3.94-.4 6.48-1.3 7.6-2.68s1.68-4.6 1.68-9.64V44.48q0-5.17-1.64-6.74c-1.09-1.05-3.58-1.66-7.44-1.85v-1.8h18.9l22 47.68 21.46-47.68h19v1.8q-5.33.38-6.87 1.94t-1.54 6.65V87c0 3.48.51 5.72 1.54 6.7s3.32 1.62 6.87 1.93v1.81h-26.82v-1.8c3.88-.31 6.29-1 7.25-2.07s1.43-3.64 1.43-7.68V42.94l-24.53 54.51h-1.31l-24.1-52.27v38.14q0 7.84 2.29 10.22 1.49 1.54 6.66 2.1v1.81h-22.43zM255.64 95.64c3.74-.4 6.08-1.08 7-2.06s1.4-3.51 1.4-7.62V44.44q0-5.11-1.57-6.64t-6.84-1.91v-1.8h26.57v1.8q-5.25.38-6.83 1.91t-1.58 6.64v18.69h29V44.44c0-3.41-.52-5.62-1.54-6.64s-3.32-1.66-6.87-1.91v-1.8H321v1.8q-5.28.38-6.85 1.91t-1.56 6.64V87.1q0 5.18 1.56 6.63t6.85 1.91v1.81h-26.57v-1.81q5.65-.56 7-2t1.41-7.64V67.34h-29V87.1c0 3.45.53 5.66 1.58 6.65s3.33 1.62 6.83 1.89v1.81h-26.61z"/></svg>