<svg id="Calque_1" data-name="Calque 1" xmlns="http://www.w3.org/2000/svg" viewBox="0 0 371 133"><defs><style>.cls-1{fill:#9a9fa9;fill-rule:evenodd}</style></defs><title>Plan de travail 1 copie 4</title><path class="cls-1" d="M183.3 41.69a2.45 2.45 0 0 1 2.45 2.45v17.53a2.45 2.45 0 0 1-2.45 2.45 2.45 2.45 0 0 1-2.44-2.45V44.14a2.45 2.45 0 0 1 2.44-2.45zM250.81 83.24a6.72 6.72 0 1 1 .6 2.72 8.05 8.05 0 0 1-.6-2.72zm-4.46-.51a10.9 10.9 0 0 0 3.2 8.28 11.05 11.05 0 0 0 11.83 2.68c1.25-.47 2.24-1.17 2.57-1.26-.29.62.09 1.18-.52 2.79-1.46 3.81-5.84 4.24-9.5 3.67-.38-.06-.72-.14-1.07-.22a3.64 3.64 0 0 0-1.66-.24 2.11 2.11 0 0 0-.19 4.14 11.75 11.75 0 0 0 3 .59c5.93.69 11.59-.66 14-6.59 1.29-3.21.83-8.34.83-12.94 0-1.47.23-9.21-.25-10.22a2.43 2.43 0 0 0-4.6.65c-8.35-5.6-17.6 1.17-17.6 8.67zM156.52 53a8.85 8.85 0 0 1 .6-2.59 6.5 6.5 0 0 1 10.6-2c4.45 4.46.45 11.07-4.05 11.07-2.48 0-3.54-.3-5.33-2.07a6.75 6.75 0 0 1-1.82-4.41zm12.76-9.31a17.06 17.06 0 0 0-2.5-1.2A11.16 11.16 0 0 0 153.7 59a15.92 15.92 0 0 0 1.16 1.52 11.25 11.25 0 0 0 7.14 3.59c2.83 0 3.53.15 6.21-1.19a10 10 0 0 0 1.57-1 8.33 8.33 0 0 0 2-1.95 10 10 0 0 0 1.49-2.46 10.81 10.81 0 0 0 1-4.4V32.72a2.47 2.47 0 0 0-4.77-.81c-.41 1.15-.21 10.16-.21 11.78zM169.15 81.07h-12c.71-3 2.59-5.19 6-5.19a6 6 0 0 1 5.31 3.12 5.71 5.71 0 0 1 .69 2.11zM151.93 83a11.54 11.54 0 0 0 6.19 10.27c7.32 3.65 15-1.72 15-3.89a2 2 0 0 0-2.3-2.17c-.94 0-1.46 1.27-3.4 2.21a8.15 8.15 0 0 1-6.88.29c-2.28-1-3-2.85-3.5-5 1.18 0 15.28.18 16.06-.14 2-.82.69-4.77.22-5.94a10.55 10.55 0 0 0-9.52-6.81c-3.74 0-6.07.79-8.71 3.41a11.74 11.74 0 0 0-3.16 7.77zM218.28 45.6a5.79 5.79 0 0 1 4.5 1.63 5.59 5.59 0 0 1 1.75 3.61h-12a7.49 7.49 0 0 1 1.85-3.65 5.8 5.8 0 0 1 3.9-1.59zm-10.85 6.13c0 3.4.27 5.79 2.65 8.45a10.74 10.74 0 0 0 5.59 3.6c6.12 1.73 12.81-2.49 12.81-4.65 0-1.38-.77-2.3-1.91-2.3-1.33 0-1.35.9-3.32 2-3.33 1.93-8.12 1.59-10.08-2.16a4.46 4.46 0 0 1-.64-2.3h14.68c1.54 0 2.29-.61 2.29-1.92 0-3.42-1.71-6.89-3.7-8.42a10.58 10.58 0 0 0-7.52-2.68 11 11 0 0 0-7.44 3.16 10.78 10.78 0 0 0-3.41 7.18zM220.83 81.07h-12c.46-.95.86-5 6-5.2a6 6 0 0 1 4 1.53 5.51 5.51 0 0 1 2 3.67zm-6.51 13.4c2.8 0 4.45-.16 6.9-1.52 1.39-.77 3.56-2 3.56-3.84a1.94 1.94 0 0 0-3.22-1.44c-2.84 2.64-7.87 4-10.91.9a5.34 5.34 0 0 1-1.82-3.92H224c3.65 0 1.08-7.26-1.18-9.54a11.17 11.17 0 0 0-18.29 3.46 10.84 10.84 0 0 0-.82 3.27 8.09 8.09 0 0 0 .18 3.65 10.13 10.13 0 0 0 .67 2.14 11.26 11.26 0 0 0 5.32 5.65 9.84 9.84 0 0 0 4.42 1.19zM302 81.07h-12c.44-.89.28-2.12 1.95-3.67a6.29 6.29 0 0 1 4.05-1.53 6.11 6.11 0 0 1 5.3 3.13 4.87 4.87 0 0 1 .68 2.12zm-17.23 2.05a14.51 14.51 0 0 0 .31 2.37 8.39 8.39 0 0 0 .67 2.14 11.26 11.26 0 0 0 5.32 5.65c7.25 3.63 14.88-1.81 14.88-3.78 0-1.58-.59-2.3-2.29-2.3-.75 0-1.54 1.24-3.32 2.17a8.86 8.86 0 0 1-4.52.95 7.13 7.13 0 0 1-2.16-.52 6.29 6.29 0 0 1-3-2.64 5.18 5.18 0 0 1-.68-2.51h15.19c3.73 0 1-7.43-1.18-9.54-2.72-2.69-4.85-3.35-8.65-3.35a9.94 9.94 0 0 0-4.34 1.15 11.26 11.26 0 0 0-3.15 2.33 12.44 12.44 0 0 0-1.16 1.52 9.9 9.9 0 0 0-1.61 3.88 15.73 15.73 0 0 0-.33 2.48zM183.44 75.33c0-1.16.06-1.47-.45-2.22-1.27-1.87-4.52-1.52-4.52 2v16.3c0 3.6 3.67 3.57 4.65 1.72.58-1.07.32-7.87.32-9.38 0-2.62 0-3.8 1.15-5.36 2-2.82 6.87-3 8.86 0 1.07 1.57 1 2.9 1 5.41 0 1.53-.23 8.13.31 9.26a2.53 2.53 0 0 0 4.05.59 2.41 2.41 0 0 0 .61-1.55V81.58c0-7.43-6.46-12-13.06-8.71a9.36 9.36 0 0 0-2.89 2.46zM233.08 52.62a11.4 11.4 0 0 0 7.67 11 11.92 11.92 0 0 0 11.39-2.23 3.16 3.16 0 0 0 .62-.53 2.14 2.14 0 0 0-1.44-3.73c-1.18 0-1.36.75-3 1.73-4.55 2.75-10.41 0-10.41-6.07 0-5.8 5.81-9.14 11.14-5.54a2.15 2.15 0 0 0 3.53-1.61c0-2.65-5-4.21-7.91-4.21a11.4 11.4 0 0 0-11.61 11.23zM257.57 34.38v21.56a8.36 8.36 0 0 0 2.46 6c2.06 2.08 4.51 2.21 7.63 2.21a2.1 2.1 0 0 0 .44-4.15c-2.63-.55-5.68 1.44-5.68-6.19V45.6h5.11c2.88 0 3.07-4.21.13-4.21h-5.24v-7a2.52 2.52 0 0 0-4-1.49 2.29 2.29 0 0 0-.82 1.49zM236 75.33c0-1.12.1-1.69-.47-2.33-1.71-1.92-4.5-1-4.5 2v16.41c0 4.08 4.85 3.57 5 .64.17-4-.69-10.43 1-12.82a7.61 7.61 0 0 1 6.18-3c3.75 0 3-4.47.51-4.47-3.72 0-5.52 1.11-7.66 3.57zM197.22 45c0-1.61-.57-3.32-2.42-3.32a2.48 2.48 0 0 0-2.55 2.42v17.58a2.49 2.49 0 0 0 4.79.84c.57-1.49-.28-9.36.36-11.89a6.06 6.06 0 0 1 4-4.15c2.68-1 5.51.19 5.51-2.92s-5.15-1.92-6.89-1a9.68 9.68 0 0 0-2.8 2.44zM275.06 74.31v17.74c0 3.11 4.84 3 4.84 0V74.31c0-2.32-3-3-4.23-1.56a2.48 2.48 0 0 0-.61 1.56zM277.35 69.72a2.65 2.65 0 0 0 2.81-2.42 2.48 2.48 0 0 0-.86-2.3 2.75 2.75 0 1 0-1.95 4.76zM183.31 34.13a2.63 2.63 0 1 1-2.62 2.62 2.62 2.62 0 0 1 2.62-2.62zM97.81 25A41.82 41.82 0 1 1 56 66.81 41.81 41.81 0 0 1 97.81 25zm0 21.17a20.65 20.65 0 1 1-20.64 20.64 20.64 20.64 0 0 1 20.64-20.64z"/></svg>