<svg id="Calque_1" data-name="Calque 1" xmlns="http://www.w3.org/2000/svg" viewBox="0 0 371 133"><defs><style>.cls-1{fill:#9a9fa9}</style></defs><title>Plan de travail 1 copie 3</title><path id="path14148" class="cls-1" d="M185.07 89.37c-95.37 0-163.14 5.88-163.14 5.88v2.56h168.76l1.79-8.44c-2.15-.01-4.75 0-7.41 0zm12.53 0l-1.54 8.44H350v-2.56s-63.59-5.4-152.4-5.88z"/><path id="path14156" class="cls-1" d="M63.61 39.25l-9 42.19h32.27l1.28-7.92h-22l2-9.72h20l1.53-8.44h-20l1.79-7.93h22.3l1.28-8.18zm107.65 10.23c-12.56 0-17.63 6.68-19.69 16.37s2.74 16.62 12.79 16.62c11.93 0 17.63-6.69 19.69-16.37s-1.2-16.62-12.79-16.62zm71.85 0c-12.56 0-17.37 6.69-19.43 16.37s2.49 16.62 12.53 16.62 15.95-4.85 18.67-12.28h-9.46c-1.29 3-3.37 5.12-7.68 5.12-5.63 0-6.15-4.82-5.11-9.72s3.57-9.72 9.21-9.72c4.34 0 5.54 3.05 5.37 6.65h9.2c.55-7.76-3.2-13-13.3-13zm-33 .51c-2.83 0-7.4.68-9.72 3.07l.51-2.3h-9.2c-.31 2-9.46 47.05-9.46 47.05h9L195 79.4c1.77 2.74 6.76 3.32 9 3.32 9 0 13.15-8.72 14.83-16.62 1.76-8.27.08-16.11-8.69-16.11zm68 0c-16.08-.44-15.35 10-15.35 10h8.44s-.11-4.09 5.88-4.09c0 0 5.41-.24 4.61 3.58a3.28 3.28 0 0 1-3.84 3.07s-17.82-1.85-19.18 11.25c0 0-.73 9.21 9.72 9.21 0 0 6.86-.21 10-3.58a4 4 0 0 0 3.84 2h5.11l1.54-6.13-.77-.51s-.62.08-.26-1.54l3.33-16.11c1.44-7-13-7.16-13-7.16zm-180 .77L93.78 70.7a20.32 20.32 0 0 0-.51 4.86c.15 4.47 5.64 6.65 8.69 6.65 4.29 0 7-1.06 9.21-2.81v2h9.2c.21-1.84.44-3.53.77-5.37l5.37-25.31h-9.2l-3.84 17.68a6.41 6.41 0 0 1-6.65 5.37c-3.95 0-4.2-1.72-3.58-4.6l4.09-18.41zm34.52 0c-.36 2.27-6.14 30.68-6.14 30.68h9.72l3.32-15.85c.41-2 .28-4.08 1.54-5.88 1-1.44 3.56-1.92 5.11-2.05h4.35l1.79-6.9c-4.23 0-7-.09-10.49 2.3v-2.3zm167 0c-.36 2.27-6.14 30.68-6.14 30.68h9.72l3.06-15.85c.41-2 .54-4.08 1.79-5.88 1-1.44 3.56-1.92 5.12-2.05h4.09l2.05-6.9c-4.23 0-7-.09-10.49 2.3v-2.3zM170 55.87c5.64 0 5.9 5.08 4.86 10s-2.73 9.46-9 9.46c-5.64 0-6.16-4.82-5.11-9.72s3.6-9.74 9.25-9.74zm36 1.28c4.18 0 5.35 4 4.34 8.7s-3.46 8.69-8.18 8.69c-5 0-5.5-4.47-4.6-8.69s3.52-8.7 8.44-8.7zm73.38 10.74s-1.34 8.44-8.18 8.44c0 0-3.83.25-3.83-2.81 0 0 .09-3.93 5.62-4.61a33.47 33.47 0 0 0 6.39-1z"/></svg>