<svg width="9" height="16" viewBox="0 0 9 16" xmlns="http://www.w3.org/2000/svg"><title>noun_makeup_1302377</title><g fill="#000" fill-rule="nonzero"><path d="M1.933.316C.893.316.041 1.165.041 2.208v2.524h3.785V2.208A1.894 1.894 0 0 0 1.933.316zM.331 14.363a1.126 1.126 0 0 0 1.126 1.092h.956c.608 0 1.104-.48 1.126-1.092l.277-9H.054l.277 9zM7.844 8.516h-.948v-3.47h.63a.315.315 0 1 0 0-.631h-.63v-.947h.63a.315.315 0 1 0 0-.63h-.63v-.946h.63a.315.315 0 1 0 0-.631h-.63V.63a.315.315 0 1 0-.63 0v.63h-.632a.315.315 0 1 0 0 .632h.631v.946h-.63a.315.315 0 1 0 0 .63h.63v.947h-.63a.315.315 0 1 0 0 .63h.63v3.471h-.944a.312.312 0 0 0-.316.316v5.046a1.58 1.58 0 0 0 1.577 1.577c.867 0 1.577-.71 1.577-1.577V8.832a.314.314 0 0 0-.315-.316z"/></g></svg>