<svg width="18" height="17" viewBox="0 0 18 17" xmlns="http://www.w3.org/2000/svg"><title>noun_Perfume_842405</title><path d="M16.974 6.835c-.816-1.407-1.994-2.327-2.942-2.397-2.137-2.225-4.836-2.657-4.992-2.68l-.055-.008H6.709V.804a.706.706 0 1 0-1.413 0v.946h-1.25a.757.757 0 1 0 0 1.514h1.25V5.42H4.135c-2.248 0-4.07 2.708-4.07 6.047 0 2.146.752 4.028 1.886 5.101h8.102c1.134-1.073 1.887-2.955 1.887-5.1 0-3.34-1.822-6.048-4.07-6.048H6.709V3.264h2.157c.35.062 2.255.467 3.869 2.022-.335.871-.108 2.276.668 3.617 1.048 1.809 2.696 2.812 3.682 2.241.986-.57.936-2.5-.111-4.309z" fill="#000" fill-rule="nonzero"/></svg>