<svg width="18" height="18" viewBox="0 0 18 18" xmlns="http://www.w3.org/2000/svg"><title>noun_Retail_506671</title><g fill="#000" fill-rule="nonzero"><path d="M3.392 6.48C2.263 6.441 1.081 5.46.438 4.39c-.513-.863-.578-1.765-.18-2.548.771-1.514 2.351-.744 3.288-.286.18.091.346.17.5.236.437.184 1.142.184 1.426-.09.256-.248.154-.745.013-1.11A.437.437 0 0 1 5.728.03c.217-.091.462.027.552.247.41 1.11.116 1.725-.22 2.052-.628.616-1.757.536-2.349.275-.167-.08-.346-.157-.54-.247-1.245-.627-1.823-.772-2.144-.118-.335.653-.103 1.28.14 1.698.49.81 1.542 1.436 2.377 1.502.051 0 .14.066.13.143l-.079.731c-.009-.002-.06.166-.203.166z"/><path d="M6.503 4.992c.19.05.37.15.51.287.499.477.512 1.242.014 1.717a1.319 1.319 0 0 1-1.804.013c-.498-.477-.511-1.242-.013-1.716.102-.1.217-.164.333-.238a.122.122 0 0 0 .064-.113c.065-.4.027-.84.014-1.028 0-.05-.078-.076-.103-.076-.384.076-.78.163-1.202.276-.14.037-.23.114-.255.25-.614 2.608-.46 4.15-.396 4.587.014.087.051.15.102.2.576.578 4.362 4.326 8.504 7.985.09.076.293.226.46.087 1.856-1.416 3.722-3.084 5.217-5.027.116-.15.014-.376-.077-.45-3.836-3.884-7.84-7.381-8.517-7.97a.384.384 0 0 0-.218-.1c-.32-.05-1.304-.15-2.698.014-.026 0-.089.05-.089.113-.013.2-.026.664.065 1.065.011.05.038.11.089.124z"/></g></svg>