<svg width="15" height="15" viewBox="0 0 15 15" xmlns="http://www.w3.org/2000/svg"><title>noun_Scissors_1647583</title><g fill="#000" fill-rule="nonzero"><path d="M14.983 4.098c-.021-.016-.054-.014-.1 0l-4.865 1.285a.073.073 0 0 0-.055.055l-.551 2.088c-.011.04.01.057.047.038l3.055-1.552c1.898-.965 2.325-1.491 2.47-1.819.021-.048.021-.078-.001-.095z"/><path d="M8.767 10.593c-.427-.22-.492-.532-.386-.934L10.902.117c.014-.046.016-.079 0-.1-.017-.022-.047-.022-.095-.001-.327.144-.854.572-1.819 2.47L6.235 7.903a.042.042 0 0 0 .021.058c.163.072.318.18.46.323.615.615.6 1.462-.22 2.282l-.524.523a2.334 2.334 0 1 0 2.795-.496zM7.553 6.795a.46.46 0 1 1 .651.652.46.46 0 0 1-.652-.652zm1.156 6.803a1.379 1.379 0 1 1-2.033-1.863 1.379 1.379 0 0 1 2.033 1.863zM5.774 7.813l.734-1.444c.019-.037.002-.058-.038-.048l-1.129.298c-.402.107-.714.04-.934-.386a2.333 2.333 0 1 0-.497 2.795l.524-.524c.43-.43.867-.637 1.274-.65.025 0 .051-.011.066-.04zm-2.509.51A1.38 1.38 0 1 1 1.402 6.29a1.38 1.38 0 0 1 1.863 2.035z"/></g></svg>