<svg width="27" height="38" viewBox="0 0 27 38" xmlns="http://www.w3.org/2000/svg"><title>Icon</title><g fill="#00BCDC" fill-rule="evenodd"><path d="M17 28a3.001 3.001 0 0 1-6 0 3.001 3.001 0 0 1 6 0"/><path d="M3.857 34.2V20.9h19.286l.002 13.3H3.857zM7.714 9.5c0-3.143 2.596-5.7 5.786-5.7 3.19 0 5.786 2.557 5.786 5.7v7.6H7.714V9.5zm15.429 7.6V9.5c0-5.238-4.326-9.5-9.643-9.5-5.317 0-9.643 4.262-9.643 9.5v7.6C1.73 17.1 0 18.802 0 20.9v13.3C0 36.296 1.73 38 3.857 38h19.286C25.27 38 27 36.296 27 34.2V20.9c0-2.098-1.73-3.8-3.857-3.8z"/></g></svg>