<svg width="18" height="18" viewBox="0 0 18 18" xmlns="http://www.w3.org/2000/svg"><title>noun_Sports_988740</title><g fill="#000" fill-rule="nonzero"><path d="M2.697 2.752A9.244 9.244 0 0 1 5.1 8.626h3.526V.01a8.973 8.973 0 0 0-6.01 2.653l.081.089zM9.376 8.626H12.9a9.244 9.244 0 0 1 2.403-5.874l.08-.088A8.973 8.973 0 0 0 9.376.01v8.616zM13.65 9.376a8.498 8.498 0 0 0 2.208 5.368l.033.037a8.956 8.956 0 0 0 2.1-5.405h-4.34z"/><path d="M15.858 3.257a8.497 8.497 0 0 0-2.207 5.369h4.34a8.957 8.957 0 0 0-2.1-5.405l-.033.036zM15.304 15.25A9.247 9.247 0 0 1 12.9 9.376H9.376v8.614a8.973 8.973 0 0 0 6.008-2.652l-.08-.088zM8.626 9.376H5.1a9.247 9.247 0 0 1-2.403 5.874l-.08.088a8.973 8.973 0 0 0 6.009 2.652V9.376zM2.11 3.22a8.957 8.957 0 0 0-2.1 5.406h4.34a8.497 8.497 0 0 0-2.207-5.369L2.11 3.22z"/><path d="M.01 9.376a8.956 8.956 0 0 0 2.1 5.405l.033-.037A8.498 8.498 0 0 0 4.35 9.376H.01z"/></g></svg>