<svg width="19" height="19" viewBox="0 0 19 19" xmlns="http://www.w3.org/2000/svg"><title>noun_Star_1822860</title><path d="M18.971 6.9c-.077-.238-.268-.398-.844-.451l-5.247-.487c-.312-.029-.482-.153-.606-.44L10.189.682C9.961.15 9.75.017 9.5.017c-.25 0-.461.133-.69.664l-2.084 4.84c-.124.287-.295.411-.607.44L.872 6.45c-.575.054-.766.214-.844.451-.077.237-.016.48.418.86l3.959 3.479c.235.206.3.408.232.713l-1.16 5.14c-.126.564-.033.796.17.943.201.146.45.163.947-.132l4.531-2.69c.27-.16.48-.16.75 0l4.53 2.69c.498.295.747.278.949.131.202-.146.294-.378.168-.942l-1.16-5.14c-.068-.306-.002-.507.233-.714l3.958-3.477c.435-.382.496-.624.418-.861z" fill="#000" fill-rule="nonzero"/></svg>