<svg width="15" height="17" viewBox="0 0 15 17" xmlns="http://www.w3.org/2000/svg"><title>noun_Stethoscope_534397</title><path d="M13.487 1.436c-.557-.104-1.103.285-1.218.87-.07.353.036.696.253.936-.207.862-.515 1.952-.842 2.608-1.181 2.372-2.508 3.612-3.632 3.4-1.125-.21-1.88-1.844-2.072-4.48-.052-.72.078-1.847.215-2.721.297-.142.53-.426.601-.784C6.907.679 6.55.12 5.992.017c-.558-.105-1.103.285-1.22.87-.073.372.047.732.287.972-.132.848-.292 2.115-.228 2.994.172 2.376.793 4.061 1.781 4.92 1.258 1.33 3.37 3.777 3.679 4.681.163.48-.169.91-.547 1.108-.204.107-.916.393-1.51-.415-.17-.23-.428-.706-.727-1.257-1.258-2.312-3.157-5.807-5.665-5.429-.717.108-1.28.591-1.587 1.36-.408 1.027-.31 2.47.176 3.618a2.08 2.08 0 1 0 .946-.74c-.274-.82-.32-1.787-.055-2.452.232-.582.577-.634.69-.651 1.707-.26 3.517 3.06 4.486 4.843.333.612.595 1.095.812 1.39.535.726 1.232 1.015 1.892 1.015.384 0 .755-.098 1.074-.264.96-.503 1.424-1.553 1.101-2.497-.307-.897-1.628-2.518-2.661-3.699 1.403-.23 2.794-1.618 3.991-4.022.4-.8.736-2.037.936-2.875.32-.135.572-.428.646-.803.114-.585-.244-1.143-.802-1.248z" fill="#000" fill-rule="nonzero"/></svg>