<svg width="48" height="46" viewBox="0 0 48 46" xmlns="http://www.w3.org/2000/svg"><title>Icon</title><g fill="#00BCDC" fill-rule="nonzero"><path d="M27.785 25.37c-.301.198-1.155.646-2.16 1.243-.753-1.194-1.757-2.338-3.012-2.538-1.658-.298-3.716.349-5.474.896 0 0-1.707.498-2.31.647-1.255.348-2.41.647-3.365 1.045-1.858.796-5.272 4.03-7.281 6.518-.653.846-1.808 2.488-2.812 3.981-.402.547-.703 1.045-1.005 1.443-.652.896-.401 2.14.503 2.786l6.026 4.23c.452.299 1.004.448 1.556.348.05 0 .1 0 .1-.05.503-.149.905-.447 1.206-.845l1.958-3.085c2.913.05 6.027-.299 8.035-.797h.05c2.963-.796 7.382-3.98 13.007-9.454 1.456-1.443 1.607-3.682.301-5.374-1.055-1.443-3.113-2.289-5.323-.995zM7.849 42.983L2.978 39.55c.2-.248.401-.597.602-.895.201-.299.452-.647.703-.995l4.771 3.383-1.205 1.94zm23.1-13.186c-6.629 6.419-10.094 8.31-11.801 8.757h-.05c-1.808.448-4.67.747-7.383.697-.15 0-.25 0-.401.05L5.84 35.42c.15-.199.301-.398.452-.547 2.059-2.538 5.072-5.225 6.227-5.722.753-.348 1.858-.597 3.013-.946.653-.149 2.41-.696 2.41-.696 1.407-.448 3.214-.946 4.219-.796.2.05.602.497 1.054 1.194-.803.448-1.557.896-2.008 1.144-.854.448-3.064 1.095-4.872 1.493l-.351.05a1.35 1.35 0 0 0-1.055 1.592c.151.747.904 1.194 1.607 1.045l.352-.05c1.808-.398 4.369-1.144 5.574-1.741 1.908-.995 3.214-1.792 3.264-1.792 0 0 3.063-1.79 3.415-1.94.954-.547 1.557-.05 1.808.249.401.497.552 1.293 0 1.84zM47.141 4.619L41.113.379c-.452-.298-1.004-.448-1.557-.348-.05 0-.1 0-.1.05-.503.15-.905.448-1.206.847L36.291 4.02c-2.913-.05-6.028.3-8.037.798h-.05c-2.964.798-7.384 3.99-13.01 9.476-1.457 1.446-1.608 3.69-.302 5.386 1.105 1.397 3.165 2.244 5.375.948.301-.2 1.155-.649 2.16-1.247.753 1.197 1.758 2.344 3.014 2.543 1.658.3 3.717-.349 5.475-.897 0 0 1.708-.5 2.31-.649 1.257-.349 2.412-.648 3.366-1.047 1.859-.798 5.275-4.04 7.284-6.533.653-.848 1.808-2.494 2.813-3.99.402-.548.703-1.047 1.005-1.446.552-.848.351-2.095-.553-2.743zm-5.475 6.483c-2.06 2.544-5.074 5.237-6.229 5.735-.753.35-1.859.599-3.014.948-.653.15-2.411.698-2.411.698-1.406.45-3.215.948-4.22.798-.2-.05-.602-.499-1.054-1.197.803-.449 1.557-.897 2.009-1.147.854-.449 3.064-1.097 4.872-1.496l.352-.05a1.352 1.352 0 0 0 1.055-1.596c-.15-.748-.904-1.197-1.608-1.047l-.351.05c-1.808.399-4.37 1.147-5.576 1.745-1.909.998-3.215 1.796-3.265 1.796 0 0-3.064 1.795-3.416 1.945-.954.548-1.557.05-1.808-.25-.352-.498-.502-1.246.05-1.795C23.682 9.806 27.1 7.91 28.857 7.462h.05c1.808-.45 4.671-.748 7.384-.699.15 0 .251 0 .402-.05l5.475 3.89c-.2.15-.352.35-.502.5zm2.712-3.79c-.2.3-.452.648-.703.997l-4.772-3.39 1.256-1.946 4.872 3.441c-.25.3-.452.599-.653.898z"/></g></svg>