<svg width="38" height="33" viewBox="0 0 38 33" xmlns="http://www.w3.org/2000/svg"><title>icon</title><path d="M31.061 29.096H18.443l-7.586-3.035V16.43h1.81c.722 0 1.377-.43 1.661-1.097l4.96-11.57h2.427V11c0 1 .809 1.81 1.81 1.81h10.497l-2.96 16.286zm-23.823 0H3.62V14.619h3.62v14.477zM37.58 9.84a1.812 1.812 0 0 0-1.388-.65H25.334V1.954c0-1-.81-1.81-1.81-1.81h-5.428c-.724 0-1.38.43-1.663 1.097l-4.96 11.57h-.616c0-.999-.81-1.81-1.81-1.81H1.81C.809 11 0 11.811 0 12.81v18.096c0 .998.809 1.81 1.81 1.81h7.238c.999 0 1.81-.812 1.81-1.81v-.945l6.564 2.626c.214.085.442.128.674.128h14.476c.874 0 1.623-.626 1.779-1.486l3.62-19.905a1.805 1.805 0 0 0-.392-1.484z" fill="#00BCDC" fill-rule="evenodd"/></svg>