<svg width="18" height="18" viewBox="0 0 18 18" xmlns="http://www.w3.org/2000/svg"><title>noun_Travel_2207119</title><path d="M16.686 15.693l-1.567 1.588c-.087.087-.239.087-.304-.043l-3.568-7.222c-.065-.13-.26-.174-.37-.066l-4.285 3.785c-.065.044-.087.131-.087.196l.326 3.133c0 .087-.021.174-.087.217l-.804.566c-.11.087-.283.043-.349-.087l-1.718-3.524a.262.262 0 0 0-.109-.109L.24 12.409c-.13-.066-.174-.24-.087-.349l.566-.783a.207.207 0 0 1 .217-.087l3.133.327c.065 0 .152-.022.196-.087L8.07 7.144c.11-.109.066-.304-.065-.37L.762 3.207c-.108-.065-.13-.218-.043-.305l1.588-1.588c.043-.043.13-.065.196-.065l8.723 2.154c.087.021.174 0 .239-.066l1.631-1.827C14.423.096 16.36-.274 17.338.705c.98.98.61 2.893-.805 4.242L14.706 6.58c-.065.065-.087.152-.065.239l2.153 8.723c-.021.043-.043.109-.108.152z" fill="#000" fill-rule="nonzero"/></svg>