<svg width="71" height="85" viewBox="0 0 71 85" xmlns="http://www.w3.org/2000/svg"><title>Icon</title><path d="M64.21 56.843l1.836 6.403.846-.24a2.32 2.32 0 0 1 2.69 1.634c.333 1.162-.283 2.386-1.472 2.83l-9.459 2.712 2.603 9.075-7.674-1.294-5.823 5.164-2.602-9.075-19.024 5.455a8 8 0 0 1-9.882-5.478L1.381 22.178a8 8 0 0 1 5.478-9.882L46.656.884a4.59 4.59 0 0 1 5.677 3.147l14.256 49.717a2.32 2.32 0 0 1-1.59 2.87l-.789.225zm-45.506 8.95a7.947 7.947 0 0 1 3.026-1.637l3.7-1.061-13.594-47.41-3.699 1.06A3.36 3.36 0 0 0 5.841 20.9l12.863 44.892zm25.175 3.809l-1.85-6.45-18.987 5.443a3.36 3.36 0 0 0-2.146 4.107c.494 1.722 2.251 2.753 3.96 2.354l19.023-5.454zm10.887 3.865l-3.701-12.875-4.586 1.315 3.693 12.878 1.98-1.763 2.614.445zm6.806-8.939l-1.792-6.425-4.243 1.217 1.838 6.412 4.197-1.204zm-31.69-2.71l31.606-9.063L47.893 5.346l-31.606 9.063 13.595 47.41z" fill="#DDDFE2" fill-rule="nonzero" stroke="#DDDFE2" stroke-width="1.5"/></svg>