<svg xmlns="http://www.w3.org/2000/svg" viewBox="0 0 28.25 26.63"><defs><style>.cls-1,.cls-2{fill:#9a9fa9}.cls-2{fill-rule:evenodd}</style></defs><title>icon-trans-proof</title><g id="Calque_2" data-name="Calque 2"><g id="Icon_Translation_proofreading" data-name="Icon Translation proofreading"><path class="cls-1" d="M12.92 21.12H2.61V2.64h15.65v8.56h2.61V2.64A2.62 2.62 0 0 0 18.26 0H2.61A2.62 2.62 0 0 0 0 2.64v18.48a2.63 2.63 0 0 0 2.61 2.64h10.31z"/><path class="cls-1" d="M11.23 7.08a.84.84 0 0 0-.76-.48.85.85 0 0 0-.77.48L5.31 15.9a.87.87 0 0 0 .38 1.16.78.78 0 0 0 .39.1.84.84 0 0 0 .76-.48l1.51-3h4.25l.32.64v-.12a2.76 2.76 0 0 1 .9-2zm-2 4.82l1.26-2.51 1.26 2.51z"/><path id="Search" class="cls-2" d="M19.49 19.1L18.42 18l-1.16 1.2 2.23 2.26 3.87-3.92-1.16-1.18zm8.64 6.44a.69.69 0 0 1-1 1l-3.66-3.69A5.37 5.37 0 0 1 20.19 24a5.43 5.43 0 0 1-3.85-1.61 5.55 5.55 0 0 1 0-7.78 5.41 5.41 0 0 1 7.7 0 5.53 5.53 0 0 1 .44 7.28zm-10.82-4.16a4.14 4.14 0 0 1 0-5.83 4.07 4.07 0 0 1 5.77 0 4.14 4.14 0 0 1 0 5.83 4 4 0 0 1-5.77 0z"/></g></g></svg>