<svg xmlns="http://www.w3.org/2000/svg" viewBox="0 0 25 24"><defs><style>.cls-1{fill:#9a9fa9}</style></defs><title>Icon-assessment</title><g id="Calque_2" data-name="Calque 2"><g id="Icon_Assessment" data-name="Icon Assessment"><path id="Fill-268" class="cls-1" d="M19.38 21.47a3.16 3.16 0 1 1 3.12-3.15 3.14 3.14 0 0 1-3.12 3.15zM16.25 5.05V3.44a.91.91 0 0 1 .91-.91.89.89 0 0 1 .86.64l3 9.73a5.43 5.43 0 0 0-1.61-.27 5.62 5.62 0 0 0-3.13 1V5.05zm-5 2.53h2.5v2.53h-2.5zm-2.5 6a5.62 5.62 0 0 0-3.13-1A5.43 5.43 0 0 0 4 12.9l3-9.73a.89.89 0 0 1 .86-.64.91.91 0 0 1 .91.91v10.15zm-3.13 7.89a3.16 3.16 0 1 1 3.13-3.15 3.14 3.14 0 0 1-3.13 3.15zM25 17.31L20.41 2.43A3.39 3.39 0 0 0 17.16 0a3.43 3.43 0 0 0-3.41 3.44v1.61h-2.5V3.44A3.43 3.43 0 0 0 7.84 0a3.39 3.39 0 0 0-3.25 2.43L.05 17.31a1.57 1.57 0 0 0 0 .37v.64A5.66 5.66 0 0 0 5.62 24a5.66 5.66 0 0 0 5.63-5.68v-5.69h2.5v5.69a5.63 5.63 0 1 0 11.25 0v-.64a1.57 1.57 0 0 0-.05-.37z"/></g></g></svg>