<svg xmlns="http://www.w3.org/2000/svg" width="200" height="200" viewBox="-2.3 -2.4 200 200" overflow="visible"><path fill="#898989" d="M0 0v194.8h194.8V0H0zm187 7.8V39H7.8V7.8H187zM7.8 187V46.8H187V187H7.8z"/><path fill="#898989" d="M50.7 19.5h120.8v7.8H50.7zm-31.2 0h7.8v7.8h-7.8zm15.6 0h7.8v7.8h-7.8zm64.7 72.1c-13.8 0-25 11.2-25 25s11.2 25 25 25 25-11.2 25-25-11.2-25-25-25zm0 48c-12.7 0-23-10.3-23-23s10.3-23 23-23 23 10.3 23 23-10.3 23-23 23z"/><path fill="#898989" d="M100.8 101.6h-2v14h-14v2h14v14h2v-14h14v-2h-14z"/></svg>