<svg xmlns="http://www.w3.org/2000/svg" width="200" height="200" viewBox="-10 -1.7 200 200" overflow="visible"><path fill="#898989" d="M156.6 44.9l6.6-6.6L170 45l8.3-8.3-19-19L151 26l6.7 6.7-6.6 6.6c-14.7-13.5-33.9-22.1-55-23.5V0H84.3v15.9C37.2 18.9 0 58 0 105.8 0 155.6 40.4 196 90.2 196c49.8 0 90.2-40.4 90.2-90.2-.1-23.5-9.1-44.8-23.8-60.9zM90.2 188.2c-45.4 0-82.3-36.9-82.3-82.3s36.9-82.3 82.3-82.3 82.3 36.9 82.3 82.3c0 45.3-37 82.3-82.3 82.3z"/><path fill="#898989" d="M94.1 94.8V43.1h-7.8v51.7c-4.6 1.6-7.8 5.9-7.8 11s3.3 9.4 7.8 11v16.4h7.8v-16.4c4.6-1.6 7.8-5.9 7.8-11s-3.3-9.4-7.8-11z"/></svg>