<svg xmlns="http://www.w3.org/2000/svg" width="200" height="200" viewBox="-2 -2 200 200" overflow="visible"><path fill="#999" d="M47.3 0v110.3H0v64.4C0 190.5 14.7 197 25.5 197h147.8c11.9 0 23.6-11.6 23.6-23.6V.1H47.3zM29.5 189.1h-4c-4.9 0-17.6-2.6-17.6-14.4v-56.5h39.4v53.2c0 5.2-6.9 17.7-17.8 17.7zm159.6-15.8c0 7.7-8.1 15.8-15.8 15.8H46.9c5.3-5.5 8.3-12.8 8.3-17.8V7.9h134v165.4zM173.3 23.6H70.9v7.9h102.4v-7.9zm0 106.4H70.9v7.9h102.4V130zm0 27.6H70.9v7.9h102.4v-7.9zm0-106.4H70.9v59.1h102.4V51.2zm-7.8 51.2H78.8V59.1h86.7v43.3z"/></svg>