<svg xmlns="http://www.w3.org/2000/svg" width="200" height="200" viewBox="0.6 0.1 200 200" overflow="visible"><path fill="#FFF" d="M196.1 3.8c-2.5-2.5-5.9-3.8-9.2-3.8-3.3 0-6.7 1.3-9.2 3.8l-38.4 38.3v-7.3H0v165h165.3V60.9h-8l38.8-38.7c5.1-5 5.1-13.3 0-18.4zm-39.5 187.4H8.7V43.6h129.1l-68.2 68v18.8h18.1l68.9-68.8v129.6zm33.3-175.1L84.1 121.7h-5.8v-6.5L183.8 9.9c1.1-1.1 2.4-1.3 3.1-1.3.7 0 2 .2 3.1 1.3s1.3 2.4 1.3 3.1c-.1.7-.2 2-1.4 3.1z"/><path fill="#FFF" d="M64.4 148.8h-8.3l-4.8-4.8c-.7-.7-1.7-1.2-2.8-1.2h-10c-1.2 0-2.2.5-2.9 1.3l-4.7 4.7h-8.4c-2.2 0-4 1.8-4 4v24c0 2.2 1.8 4 4 4h42c2.2 0 4-1.8 4-4v-24c-.1-2.2-1.9-4-4.1-4zm2 28c0 1.1-.9 2-2 2h-42c-1.1 0-2-.9-2-2v-24c0-1.1.9-2 2-2h9.2l.6-.6 2.4-2.4v.1l2.3-2.5c.4-.4.9-.7 1.5-.7h10c.5 0 1 .2 1.4.6l4.8 4.8.6.6h9.1c1.1 0 2 .9 2 2v24.1z"/><path fill="#FFF" d="M43.4 150.8c-7.2 0-13 5.8-13 13s5.8 13 13 13 13-5.8 13-13-5.8-13-13-13zm0 24c-6.1 0-11-4.9-11-11s4.9-11 11-11 11 4.9 11 11-4.9 11-11 11z"/><path fill="#FFF" d="M43.4 154.8c-5 0-9 4-9 9s4 9 9 9 9-4 9-9-4-9-9-9zm0 16c-3.9 0-7-3.1-7-7s3.1-7 7-7 7 3.1 7 7-3.1 7-7 7z"/></svg>