<svg xmlns="http://www.w3.org/2000/svg" width="200" height="200" viewBox="-3.6 -2.2 200 200" overflow="visible"><path fill="#999" d="M192.2 31.4L164.6 3.7l-6.8 6.8-9.5-9.5c-1.4-1.4-3.6-1.4-4.9 0L87.2 57.2c-1.4 1.4-1.4 3.5 0 4.9.7.7 1.6 1 2.5 1 .9 0 1.8-.3 2.5-1L146 8.3l7 7L33.7 134.6l8 8c-3.4-1.7-7.1-2.5-10.8-2.5-6.2 0-12.5 2.4-17.2 7.1-.5.5-1 1-1.4 1.5-.2.3-.4.5-.6.8-.2.3-.5.6-.7.9-.2.2-.3.5-.5.7C.5 166.4 0 195.4 0 195.4s1.1.1 2.9.1c8.3 0 32.6-1.1 45.3-13.8 7.6-7.6 9.1-18.9 4.6-28l8.6 8.6L192.2 31.4zM43.3 176.7c-7.7 7.7-21.3 10.4-31 11.3L28 172.2l-4.9-4.9L8 182.5c1.2-9.3 3.7-20.5 8.3-27.4l.2-.3.2-.2c.2-.2.3-.4.6-.8.1-.2.2-.3.4-.5.3-.4.6-.7 1-1.1 3.3-3.3 7.6-5.1 12.3-5.1 4.6 0 9 1.8 12.3 5.1 6.7 6.7 6.7 17.7 0 24.5zM182.4 31.4l-41.1 41.1-17.9-17.8 41.1-41.1 17.9 17.8zm-63.9 28.2l17.9 17.8-75 75-17.9-17.8 75-75z"/></svg>