<svg xmlns="http://www.w3.org/2000/svg" width="300" height="280" viewBox="-14.3 -8.9 300 280" overflow="visible"><path fill="none" stroke="#BBB" d="M232.2.5c-22.3 0-40.3 18-40.3 40.3 0 3.9.6 7.6 1.6 11.1L75.7 101.3c-7-12.1-20-20.2-34.9-20.2-22.2 0-40.3 18-40.3 40.3 0 22.3 18 40.3 40.3 40.3 11.7 0 22.1-5 29.5-12.9l75.9 54.6c-3 5.6-4.7 12-4.7 18.8 0 22.3 18 40.3 40.3 40.3 22.2 0 40.3-18 40.3-40.3 0-22.2-18-40.3-40.3-40.3-11.8 0-22.5 5.1-29.8 13.3l-75.8-54.5c3.1-5.7 4.9-12.3 4.9-19.2 0-3.7-.6-7.4-1.5-10.8l117.9-49.4c7 11.9 19.9 19.9 34.7 19.9 22.3 0 40.3-18 40.3-40.3 0-22.4-18-40.4-40.3-40.4zm-50.4 191.4c16.7 0 30.2 13.6 30.2 30.2 0 16.7-13.6 30.2-30.2 30.2s-30.2-13.6-30.2-30.2 13.6-30.2 30.2-30.2zm-141-40.3c-16.7 0-30.2-13.6-30.2-30.2 0-16.7 13.6-30.2 30.2-30.2S71 104.7 71 121.4s-13.5 30.2-30.2 30.2zM232.2 71C215.5 71 202 57.5 202 40.8s13.6-30.2 30.2-30.2c16.7 0 30.2 13.6 30.2 30.2S248.9 71 232.2 71z"/><path fill="#D8432F" d="M24.3 112c0 3.3 1.1 5.7 3.3 7.1 1.8 1.2 3.9 1.3 5 1.3h.6s-.3 2.2 1.3 4.4h-.1c-2.9 0-12.3.6-12.3 8.3 0 7.8 8.6 8.2 10.3 8.2h.6c1.1 0 4-.1 6.6-1.4 3.5-1.7 5.2-4.6 5.2-8.6 0-3.9-2.7-6.3-4.6-8-1.2-1-2.2-1.9-2.2-2.8 0-.9.8-1.6 1.7-2.4 1.5-1.4 3-3.3 3-7 0-3.2-.4-5.4-3-6.8.3-.1 1.2-.2 1.7-.3 1.4-.2 3.5-.4 3.5-1.6v-.2H34.7c-.1 0-10.4.4-10.4 9.8zm16.6 20.1c.2 3.1-2.5 5.4-6.5 5.7-4.1.3-7.5-1.5-7.7-4.7-.1-1.5.6-3 1.9-4.1 1.3-1.2 3.1-1.9 5.1-2.1h.7c3.7 0 6.3 2.2 6.5 5.2zm-2.7-22.2c1 3.5-.5 7.2-2.9 7.9-.3.1-.6.1-.9.1-2.2 0-4.4-2.2-5.2-5.3-.5-1.7-.4-3.2.1-4.7.5-1.4 1.4-2.4 2.6-2.7.3-.1.6-.1.9-.1 2.6-.1 4.3 1 5.4 4.8zm17.3 7.6v-6.7h-4.2v6.7h-6.7v4.2h6.7v6.7h4.2v-6.7h6.7v-4.2h-6.7z"/><path fill="#3CA7D9" d="M203.4 212.2c-1.5.7-3.1 1.1-4.7 1.3 1.7-1 3-2.6 3.6-4.5-1.6.9-3.3 1.6-5.2 2-1.5-1.6-3.6-2.6-6-2.6-4.5 0-8.2 3.7-8.2 8.2 0 .6.1 1.3.2 1.9-6.8-.3-12.9-3.6-16.9-8.6-.7 1.2-1.1 2.6-1.1 4.1 0 2.8 1.4 5.4 3.7 6.8-1.3 0-2.6-.4-3.7-1v.1c0 4 2.8 7.3 6.6 8-.7.2-1.4.3-2.2.3-.5 0-1-.1-1.5-.1 1 3.3 4.1 5.6 7.7 5.7-2.8 2.2-6.3 3.5-10.2 3.5-.7 0-1.3 0-2-.1 3.6 2.3 7.9 3.7 12.6 3.7 15.1 0 23.3-12.5 23.3-23.4v-1.1c1.5-1.1 2.9-2.5 4-4.2z"/><path fill="#3B5998" d="M241 28.5h-6.3c-.8 0-1.6 1-1.6 2.3v4.6h7.9V42h-8v19.6h-7.5V42h-6.8v-6.5h6.8v-3.8c0-5.5 3.8-10 9.1-10h6.3v6.8z"/></svg>