<svg xmlns="http://www.w3.org/2000/svg" width="300" height="280" viewBox="-1.8 -29.1 300 280" overflow="visible"><path fill="#222" d="M148.1 221.5c-42.5 0-81.2-24.4-99.7-62.4H0V62.4h48.4C66.8 24.4 105.6 0 148.1 0s81.2 24.4 99.7 62.4h48.4v96.7h-48.4c-18.5 38-57.3 62.4-99.7 62.4z"/><path fill="#F7F6F0" d="M291 67.6h-46.5C228 30.8 191 5.1 148.1 5.1c-42.9 0-79.9 25.6-96.4 62.4H5.1V154h46.5c16.5 36.8 53.5 62.4 96.4 62.4s79.9-25.6 96.4-62.4H291V67.6z"/><path fill="#F7F6F0" d="M5.1 67.6h285.8V154H5.1z"/><circle fill="#F7F6F0" cx="148.1" cy="110.8" r="105.6"/><path fill="#222" d="M148.1 31.2c-43.9 0-79.6 35.7-79.6 79.6 0 43.9 35.7 79.6 79.6 79.6s79.6-35.7 79.6-79.6c0-43.9-35.7-79.6-79.6-79.6zm0 157.9c-43.2 0-78.3-35.1-78.3-78.3s35.1-78.3 78.3-78.3c43.2 0 78.3 35.1 78.3 78.3s-35.1 78.3-78.3 78.3z"/><path fill="#222" d="M148.1 26.3c-46.6 0-84.5 37.9-84.5 84.5s37.9 84.5 84.5 84.5 84.5-37.9 84.5-84.5-37.9-84.5-84.5-84.5zm0 167.7c-45.9 0-83.2-37.3-83.2-83.2 0-45.9 37.3-83.2 83.2-83.2 45.9 0 83.2 37.3 83.2 83.2 0 45.9-37.3 83.2-83.2 83.2z"/><path fill="#222" d="M148.1 21.3c-49.3 0-89.4 40.1-89.4 89.4 0 49.3 40.1 89.4 89.4 89.4s89.4-40.1 89.4-89.4c0-49.2-40.1-89.4-89.4-89.4zm0 177.6c-48.6 0-88.2-39.6-88.2-88.2s39.5-88.2 88.2-88.2 88.2 39.5 88.2 88.2c-.1 48.7-39.6 88.2-88.2 88.2z"/><path fill="#222" d="M148.1 16.4c-52 0-94.3 42.3-94.3 94.3S96.1 205 148.1 205s94.3-42.3 94.3-94.3-42.3-94.3-94.3-94.3zm0 187.5c-51.3 0-93.1-41.8-93.1-93.1s41.8-93.1 93.1-93.1 93.1 41.8 93.1 93.1-41.8 93.1-93.1 93.1z"/><path fill="#222" d="M148.1 11.5c-54.7 0-99.3 44.5-99.3 99.3 0 54.7 44.5 99.3 99.3 99.3s99.3-44.5 99.3-99.3c-.1-54.8-44.6-99.3-99.3-99.3zm0 197.3c-54 0-98-44-98-98s44-98 98-98 98 44 98 98-44 98-98 98z"/><path fill="#F7F6F0" d="M55 67.6h186.1V154H55z"/><path fill="#222" d="M8.8 71.2h278.5v79.1H8.8z"/><circle fill="#222" cx="148.1" cy="110.8" r="71.9"/><path fill="#F7F6F0" d="M22.6 80.5l125.5-3.2 125.5 3.2zm251 60.6l-125.5 3.2-125.5-3.2zM214.1 34.6c-17.6-15.2-40.5-24.4-65.5-24.4-25.5 0-48.8 9.6-66.5 25.3.1 1.9.7 3.8 1.9 5.4l6.5 8.7c1.5 2 3.5 3.2 5.9 3.7C110.1 41 128.2 33.5 148 33.5c19.9 0 38 7.5 51.7 19.9 2.5-.4 4.7-1.7 6.2-3.7l6.3-8.3c1.5-2.1 2.2-4.4 1.9-6.8zM187 177.5c-11.5 6.7-24.8 10.6-39 10.6-13 0-25.2-3.2-36-8.9-2.2 1-3.8 2.8-4.8 5l-4.1 10.1c-.7 1.8-.9 3.6-.6 5.4 13.8 7.2 29.5 11.2 46.1 11.2 15.1 0 29.5-3.4 42.4-9.4l-3.3-8.3-.7-15.7z"/><path fill="#D90000" d="M101.1 47.7c-1.1.8-2.2 1.1-3.6.9-1.3-.2-2.3-.8-3.1-1.9L87.9 38c-.8-1.1-1.1-2.2-.9-3.6.2-1.3.8-2.4 1.9-3.1 1.1-.8 2.3-1.1 3.5-.9 1.3.2 2.3.8 3.1 1.9l1.4 1.8-2.4 1.9-1.4-1.9c-.3-.4-.7-.6-1.1-.7-.5-.1-.9 0-1.3.3s-.6.7-.7 1.1c-.1.5 0 .9.3 1.3l6.5 8.8c.3.4.7.6 1.1.7.5.1.9 0 1.3-.3s.6-.7.7-1.1c.1-.5 0-.9-.3-1.3l-2.3-3.2-1.3 1-1.8-2.4 3.8-2.9 4.2 5.6c.8 1.1 1.1 2.2.9 3.5-.3 1.4-.9 2.5-2 3.2zm9.5-6c-1.2.6-2.4.8-3.6.4-1.3-.4-2.2-1.1-2.8-2.3l-7.4-13.6 2.6-1.4 7.4 13.5c.2.4.6.7 1 .8.5.1.9.1 1.3-.1s.7-.6.8-1c.1-.5.1-.9-.1-1.3l-7.4-13.5 2.8-1.5 7.4 13.6c.6 1.2.8 2.4.4 3.6-.5 1.2-1.3 2.1-2.4 2.8zm7.2-8.7l.9 4.6-2.9 1.1-3.8-20 3.9-1.4L126 34.9l-3 1.1-2.2-4.1-3 1.1zm-2.3-10.7l1.7 7.8 2.1-.8-3.8-7zm12.7-8.4c1.6-.3 2.9-.1 3.9.6.8.7 1.4 1.7 1.7 3.1l.6 2.8c.3 1.4 0 2.7-.9 3.8l3.9 8.1-3.2.6-3.3-7c-.1 0-.2 0-.3.1l-1.7.3 1.5 7.4-3 .6-4-19.6 4.8-.8zm2.7 4.4c-.2-1.1-.9-1.6-2-1.4l-1.8.4 1.3 6.3 1.8-.4c.5-.1.8-.3 1.1-.7.3-.4.3-.8.2-1.3l-.6-2.9zm11.6 9.2l-.5 4.6-3.1.1 2.5-20.1 4.1-.2 4.3 19.8-3.2.1-.9-4.6-3.2.3zm1.1-10.9l-.7 7.9 2.2-.1-1.5-7.8zm13.2-4.3l2.5 13.8 1.5-13.4 3 .3-2.2 19.9-3.2-.3-2.7-13.2-1.4 12.7-3-.3 2.2-19.9 3.3.4zm13.2 5.2l-3.1-.8.8-2.9 9.1 2.3-.8 2.9-3.1-.8-4.2 16.4-2.9-.7 4.2-16.4zm2.9 18.3l7.4-18.6 8 3.2-1.1 2.8-5.2-2.1-2 5.1 3.8 1.5-1.1 2.8-3.8-1.5-2 5.1 5.2 2.1L181 39l-8.1-3.2zm9.6 3.9l9.7-17.5 7.5 4.2-1.5 2.6-4.9-2.7-2.6 4.8 3.6 2-1.5 2.6-3.6-2-2.6 4.8 4.9 2.7-1.5 2.6-7.5-4.1zm19.6 7c-.8 1.1-1.8 1.7-3.1 1.9-1.3.2-2.5-.1-3.5-.9l-3.8-2.8 12-16 3.8 2.8c1.1.8 1.7 1.8 1.8 3.1.2 1.3-.1 2.5-.9 3.5l-6.3 8.4zm-6.2-2.4l1.5 1.1c.4.3.8.4 1.3.3.5-.1.8-.3 1.1-.7l6.3-8.4c.3-.4.4-.8.3-1.3-.1-.5-.3-.8-.7-1.1l-1.5-1.1-8.3 11.2zm-79.4 155.6c-.3.8-.8 1.5-1.5 2 .1.4.4.7.9.9l-1.1 2.6c-1.4-.6-2.2-1.4-2.3-2.5-.8.1-1.5 0-2.2-.3-1.2-.5-2.1-1.4-2.6-2.6-.5-1.2-.5-2.4 0-3.7l4.1-10.1c.5-1.2 1.4-2.1 2.6-2.6 1.2-.5 2.4-.5 3.7 0 1.2.5 2.1 1.4 2.6 2.6s.5 2.4 0 3.6l-4.2 10.1zm1.2-11.3c.2-.4.2-.9 0-1.3s-.5-.7-.9-.9c-.4-.2-.9-.2-1.3 0s-.7.5-.9.9l-4.1 10.1c-.2.4-.2.9 0 1.3s.5.7.9.9c.4.2.9.2 1.3 0s.8-.5.9-.9l4.1-10.1zM124 207c-1.3-.3-2.3-1.1-2.9-2.2-.7-1.1-.8-2.3-.5-3.6l3.8-15 2.9.7-3.8 14.9c-.1.5-.1.9.2 1.3.2.4.6.7 1.1.8.5.1.9.1 1.3-.2.4-.2.7-.6.8-1.1l3.8-15 3 .8-3.8 15c-.3 1.3-1.1 2.3-2.2 2.9-1.3.9-2.5 1.1-3.7.7zm12.7-2.5l-1.2 4.5-3.1-.3 5.5-19.5 4.1.4 1.2 20.2-3.2-.3-.2-4.6-3.1-.4zm2.7-10.6l-1.9 7.7 2.2.2-.3-7.9zm16.5 15.7l-8.2.3-.7-20 3-.1.6 17 5.2-.2.1 3zm6.2-1l-3 .4-2.6-19.8 3-.4 2.6 19.8zm3.5-17.8l-3.1.7-.7-2.9 9.2-2.2.7 2.9-3.1.7 3.9 16.5-2.9.7-4-16.4zm14.5 4.6l-8.1-9.3 3.1-1.2 4.7 5.8-.6-7.5 3.1-1.2.6 12.3 3.1 7.8-2.8 1.1-3.1-7.8z"/><path fill="#FFF" d="M40.7 112.7c0-8.9 4.5-12.9 9.9-12.9s9.9 4 9.9 12.9-4.5 12.9-9.9 12.9c-5.4.1-9.9-3.9-9.9-12.9zm14.6 0c0-5.5-1.6-8.5-4.7-8.5s-4.7 3-4.7 8.5 1.6 8.7 4.7 8.7 4.7-3.1 4.7-8.7zm8.3-12.4h7.5c4.6 0 8.7 1.8 8.7 8 0 6.6-4.4 8.2-8.7 8.2h-2.4v8.7h-5v-24.9zm7.6 12.2c2.7 0 3.7-1.3 3.7-4s-1-3.9-3.8-3.9h-2.5v7.9h2.6zm15.5-7.9h-5.9v-4.3h17v4.3h-6v20.6h-5.1v-20.6zm13.9-4.3h5.1v24.9h-5.1v-24.9zm9.4 0h6.5l4.4 17.8 4.1-17.8h6.6v24.9h-4.8v-17.5h-.1c-.2 1.7-.9 4.6-1.3 6.1l-3 11.4h-3.8l-2.9-11.4c-.3-1.2-1.1-4.4-1.3-6.3h-.1v17.6H110v-24.8zm26 0h5.1v24.9H136v-24.9zm8.2 19.4l4.1-2.1c1.1 2.2 2.8 3.9 5.2 3.9 2.2 0 3.3-1.1 3.3-2.8 0-2.1-2.1-3-4.4-4-3.3-1.4-7.3-3-7.3-8 0-4.1 3.4-6.9 7.9-6.9 4.3 0 6.9 2.4 8.4 5.6l-4 2.2c-1-2.1-2.4-3.5-4.5-3.5-1.8 0-2.8 1.1-2.8 2.5 0 2 1.9 2.9 4.1 3.9 3.3 1.4 7.6 3 7.6 8.1 0 3.8-2.9 7.1-8.3 7.1-4.8-.1-7.6-2.5-9.3-6zm21-19.4h14.3v4.3h-9.2v5.6h6.6v4.1h-6.6v6.7h9.6v4.2h-14.7v-24.9zm7.1-7.1h4.9l-4.2 5.6h-3.4l2.7-5.6zm16.9 26.5l4.1-2.1c1.1 2.2 2.8 3.9 5.2 3.9 2.2 0 3.3-1.1 3.3-2.8 0-2.1-2.1-3-4.4-4-3.3-1.4-7.3-3-7.3-8 0-4.1 3.4-6.9 7.9-6.9 4.3 0 6.9 2.4 8.4 5.6l-4 2.2c-1-2.1-2.4-3.5-4.5-3.5-1.8 0-2.8 1.1-2.8 2.5 0 2 1.9 2.9 4.1 3.9 3.3 1.4 7.6 3 7.6 8.1 0 3.8-2.9 7.1-8.3 7.1-4.8-.1-7.6-2.5-9.3-6zm21-19.4h14.3v4.3h-9.2v5.6h6.6v4.1h-6.6v6.7h9.6v4.2h-14.7v-24.9zm16 12.4c0-8.9 4.5-12.9 9.9-12.9 5.3 0 9.9 4 9.9 12.9s-4.5 12.9-9.9 12.9c-5.4.1-9.9-3.9-9.9-12.9zm14.6 0c0-5.5-1.6-8.5-4.7-8.5s-4.7 3-4.7 8.5 1.6 8.7 4.7 8.7c3 0 4.7-3.1 4.7-8.7zM121.1 61.4c0-4.6 1.5-6.4 3.9-6.4s3.4 1.5 3.5 4.6l-2.2.2c-.2-2-.5-2.7-1.3-2.7-1.1 0-1.5 1.3-1.5 4.3s.4 4.3 1.5 4.3c.9 0 1.2-.6 1.4-2.8l2.2.2c-.3 2.5-1.2 4.6-3.7 4.6-2.4 0-3.8-1.8-3.8-6.3zm8.3 0c0-4.5 1.6-6.4 4-6.4s4 1.8 4 6.4-1.6 6.4-4 6.4c-2.4-.1-4-1.9-4-6.4zm5.6 0c0-2.9-.4-4.3-1.6-4.3-1.2 0-1.6 1.4-1.6 4.3s.5 4.3 1.6 4.3 1.6-1.4 1.6-4.3zm3.5-6.3h2.5l2 5.3c.3 1 .6 1.7.8 2.5h.1v-7.7h1.9v12.4h-2l-2.4-6.1c-.3-.9-.7-2-.9-2.4h-.1v8.5h-1.8V55.1zm10.4 2.1h-2.2v-2h6.8v2h-2.2v10.4h-2.4V57.2zm5.6-2.1h5.8v2h-3.4V60h2.5v2h-2.5v3.6h3.6v2h-5.9V55.1zm7.1 0h2.5l2 5.3c.3 1 .6 1.7.8 2.5h.1v-7.7h1.9v12.4h-2l-2.4-6.1c-.3-.9-.7-2-.9-2.4h-.1v8.5h-1.8V55.1zm8.6 8.6v-8.5h2.4v8.4c0 1.6.3 2.2 1.2 2.2.9 0 1.2-.6 1.2-2.2v-8.4h2.2v8.5c0 2.7-.9 4.1-3.5 4.1-2.5-.1-3.5-1.5-3.5-4.1z"/></svg>