<svg xmlns="http://www.w3.org/2000/svg" width="200" height="200" viewBox="-3.3 -1.4 200 200" overflow="visible"><path fill-rule="evenodd" clip-rule="evenodd" fill="#999" d="M21.4 85l4.4-4.4-8.6-8.6 8.6-8.6-4.2-4.2-8.6 8.6-8.5-8.5-4.4 4.2L8.6 72 0 80.6l4.3 4.3 8.5-8.5 8.6 8.6zm98.7-12.3l8.5-8.5 8.6 8.6 4.4-4.4-8.6-8.6 8.6-8.6-4.2-4.2-8.6 8.6-8.5-8.5-4.4 4.2 8.5 8.5-8.6 8.6 4.3 4.3zm-67.9 73.1c-1.1 0-2.3.1-3.4.3l-17-34.8 5.6-3.2s4.9-2.6 1.9-7.9c-1.7-2.9-5.4-3.9-8.3-2.2-1.6.9-21.1 11.9-21.1 11.9s-5.1 3.4-2.3 8.3c0 0 3 5.1 8.2 2.1l5.3-3L38.2 151c-4.5 3.9-7.3 9.6-7.3 16 0 11.8 9.5 21.3 21.3 21.3 11.7 0 21.3-9.5 21.3-21.3-.1-11.7-9.6-21.2-21.3-21.2zm.2 31.4c-5.3 0-9.5-4.3-9.5-9.5 0-5.3 4.3-9.5 9.5-9.5 5.3 0 9.5 4.3 9.5 9.5 0 5.3-4.2 9.5-9.5 9.5zm141.8-77.1l-28-22.3 11.4-10.7-30.8-.4 4.5 32.4 8.8-12.2 21.2 16.8s-1.6 19.8-23.3 31.8c-5.4-2.4-11.8-2.5-17.6.2-10.6 5-15.2 17.7-10.2 28.3 5 10.6 17.7 15.2 28.3 10.2 10.6-5 15.2-17.7 10.2-28.3-.5-1-1.1-2-1.7-2.9.1.1 22.3-13.2 27.2-42.9zm-41.1 64.1c-4.8 2.2-10.4.2-12.7-4.5-2.2-4.8-.2-10.4 4.5-12.7 4.8-2.2 10.4-.2 12.7 4.5 2.3 4.8.3 10.4-4.5 12.7zm-39-7.7c-.9-.7-1.9-1.3-2.9-1.8 26.1-108.5-54.8-137-54.8-137S58 2 61.5 0L29.7 15.9l19.7 32s1.5-14.4 4.1-18.9c72.3 32 46.3 123.4 46.3 123.4-5.9.4-11.6 3.3-15.5 8.5-7 9.4-5.1 22.7 4.3 29.8 9.4 7 22.7 5.1 29.8-4.3 7-9.5 5.1-22.8-4.3-29.9zm-5.3 23.4c-3.2 4.2-9.1 5.1-13.3 1.9-4.2-3.2-5.1-9.1-1.9-13.3 3.2-4.2 9.1-5.1 13.3-1.9 4.2 3.1 5 9.1 1.9 13.3zM72.1 78.1l8.6-8.6-4.2-4.2-8.6 8.6-8.5-8.5-4.4 4.2 8.5 8.5-8.6 8.6 4.3 4.3 8.5-8.5 8.6 8.6 4.4-4.4-8.6-8.6z"/></svg>